<?xml version="1.0" encoding="UTF-8" standalone="no"?>
<svg
   xmlns:dc="http://purl.org/dc/elements/1.1/"
   xmlns:cc="http://creativecommons.org/ns#"
   xmlns:rdf="http://www.w3.org/1999/02/22-rdf-syntax-ns#"
   xmlns:svg="http://www.w3.org/2000/svg"
   xmlns="http://www.w3.org/2000/svg"
   xmlns:sodipodi="http://sodipodi.sourceforge.net/DTD/sodipodi-0.dtd"
   xmlns:inkscape="http://www.inkscape.org/namespaces/inkscape"
   version="1.1"
   id="Capa_1"
   x="0px"
   y="0px"
   viewBox="0 0 203.55219 333.96362"
   xml:space="preserve"
   sodipodi:docname="bookmarkFilled.svg"
   width="203.55219"
   height="333.96362"
   inkscape:version="1.0.1 (3bc2e813f5, 2020-09-07)"><metadata
   id="metadata43"><rdf:RDF><cc:Work
       rdf:about=""><dc:format>image/svg+xml</dc:format><dc:type
         rdf:resource="http://purl.org/dc/dcmitype/StillImage" /><dc:title></dc:title></cc:Work></rdf:RDF></metadata><defs
   id="defs41" /><sodipodi:namedview
   pagecolor="#ffffff"
   bordercolor="#666666"
   borderopacity="1"
   objecttolerance="10"
   gridtolerance="10"
   guidetolerance="10"
   inkscape:pageopacity="0"
   inkscape:pageshadow="2"
   inkscape:window-width="1920"
   inkscape:window-height="1051"
   id="namedview39"
   showgrid="false"
   fit-margin-top="0"
   fit-margin-left="0"
   fit-margin-right="0"
   fit-margin-bottom="0"
   inkscape:zoom="0.859375"
   inkscape:cx="107.61971"
   inkscape:cy="84.053126"
   inkscape:window-x="-9"
   inkscape:window-y="-9"
   inkscape:window-maximized="1"
   inkscape:current-layer="Capa_1"
   inkscape:document-rotation="0" />
<g
   id="g6"
   transform="matrix(0.57936944,0,0,0.65227273,-46.542485,0)">
	<g
   id="g4">
		<path
   d="M 416.667,0 H 95.333 c -8.284,0 -15,6.716 -15,15 v 482 c 0,6.067 3.655,11.536 9.26,13.858 1.856,0.769 3.805,1.142 5.737,1.142 3.904,0 7.74,-1.523 10.61,-4.394 L 256.003,357.545 406.06,507.606 c 4.29,4.29 10.742,5.573 16.347,3.252 5.605,-2.322 9.26,-7.791 9.26,-13.858 V 15 c 0,-8.284 -6.716,-15 -15,-15 z M 256.002,321.332 c -3.978,0 -7.793,1.58 -10.606,4.394 L 110.333,460.787 V 30 H 401.666 V 460.785 L 266.609,325.726 c -2.813,-2.814 -6.628,-4.394 -10.607,-4.394 z"
   id="path2" />
	</g>
</g>
<g
   id="g8"
   transform="translate(-228.11482,-178.03636)">
</g>
<g
   id="g10"
   transform="translate(-228.11482,-178.03636)">
</g>
<g
   id="g12"
   transform="translate(-228.11482,-178.03636)">
</g>
<g
   id="g14"
   transform="translate(-228.11482,-178.03636)">
</g>
<g
   id="g16"
   transform="translate(-228.11482,-178.03636)">
</g>
<g
   id="g18"
   transform="translate(-228.11482,-178.03636)">
</g>
<g
   id="g20"
   transform="translate(-228.11482,-178.03636)">
</g>
<g
   id="g22"
   transform="translate(-228.11482,-178.03636)">
</g>
<g
   id="g24"
   transform="translate(-228.11482,-178.03636)">
</g>
<g
   id="g26"
   transform="translate(-228.11482,-178.03636)">
</g>
<g
   id="g28"
   transform="translate(-228.11482,-178.03636)">
</g>
<g
   id="g30"
   transform="translate(-228.11482,-178.03636)">
</g>
<g
   id="g32"
   transform="translate(-228.11482,-178.03636)">
</g>
<g
   id="g34"
   transform="translate(-228.11482,-178.03636)">
</g>
<g
   id="g36"
   transform="translate(-228.11482,-178.03636)">
</g>
<path
   style="fill:#000000;stroke-width:1.16364"
   d="M 17.437895,159.73462 V 20.053126 h 84.363635 84.36364 V 159.76556 299.47799 l -38.42148,-43.42152 c -21.13182,-23.88184 -39.93695,-44.35936 -41.78919,-45.50559 -2.12099,-1.31256 -4.42571,-1.81852 -6.225696,-1.36676 -1.847278,0.46364 -16.90363,16.54564 -42.574456,45.47466 l -39.716453,44.75733 z"
   id="path847" /><path
   style="fill:#000000;stroke-width:1.16364"
   d="M 3.4742582,330.74404 C 1.1693211,328.43909 1.1469855,326.86525 1.1469855,166.75576 V 5.0947673 L 4.2130029,2.6830377 C 7.2577837,0.28801279 7.9351762,0.27130809 102.01135,0.27130809 h 94.73233 l 2.85619,2.85619841 2.85621,2.8561983 V 167.20024 c 0,159.66501 -0.0223,161.23892 -2.32728,163.5438 -2.86965,2.86965 -7.13134,2.9911 -10.20759,0.2909 -1.27598,-1.12 -21.34922,-23.50545 -44.60722,-49.74545 -23.25798,-26.24 -42.8576,-47.70909 -43.55469,-47.70909 -0.69709,0 -20.274128,21.46909 -43.504532,47.70909 -23.230403,26.24 -43.284647,48.62545 -44.564988,49.74545 -3.086564,2.70002 -7.3458803,2.57874 -10.2155218,-0.2909 z M 58.157492,255.76598 c 21.814713,-24.59794 40.558822,-44.91596 41.653577,-45.15117 1.094751,-0.23519 2.895441,-0.21152 4.001531,0.0526 1.10608,0.26415 19.8484,20.58217 41.6496,45.15116 21.8012,24.56902 39.87803,44.67092 40.17075,44.67092 2.1083,0 -3.222,-6.46498 -31.86706,-38.65064 -44.58494,-50.09576 -47.68494,-53.27663 -51.9221,-53.27663 -4.143892,0 -5.029968,0.90947 -51.335198,52.69065 L 17.437895,298.23444 V 159.15139 20.068329 l 84.654545,-0.306231 84.65455,-0.30623 -85.23637,-0.283189 -85.236362,-0.283189 v 140.8 c 0,88.56044 0.411854,140.8 1.110059,140.8 0.610533,0 18.958462,-20.12558 40.773175,-44.72351 z"
   id="path849" /><path
   style="fill:#000000;stroke-width:1.16364"
   d="M 3.4742582,330.74404 C 1.1693211,328.43909 1.1469855,326.86525 1.1469855,166.75576 V 5.0947673 L 4.2130029,2.6830377 C 7.2576572,0.28811228 7.9376254,0.27130809 101.80153,0.27130809 c 93.8639,0 94.54387,0.0168041 97.58853,2.41172961 l 3.06602,2.4117296 V 166.75576 c 0,160.10949 -0.0223,161.68333 -2.32728,163.98828 -3.87904,3.87904 -7.87546,2.97906 -13.24964,-2.98377 -2.63269,-2.92106 -22.60157,-25.30652 -44.37529,-49.74545 -21.77372,-24.43892 -40.10084,-44.43442 -40.72694,-44.43442 -0.62611,0 -18.942159,19.99785 -40.70234,44.43967 -21.760183,24.44181 -41.717994,46.82726 -44.350692,49.74545 -5.374449,5.95724 -9.3722146,6.85594 -13.2496398,2.97852 z M 58.0616,255.80603 c 21.83976,-24.5759 40.434279,-44.9619 41.32115,-45.30223 0.88687,-0.34033 2.70811,-0.33226 4.0472,0.0179 1.33908,0.35018 20.29643,20.73619 42.12744,45.30223 21.831,24.56605 39.89861,44.66554 40.15025,44.66554 1.98675,0 -3.59921,-6.72972 -32.53611,-39.19805 -43.91828,-49.27801 -47.24482,-52.73054 -50.79951,-52.72344 -4.730558,0.009 -7.684171,3.0276 -56.134125,57.36086 l -28.8,32.29719 V 159.14729 20.06853 L 100.9288,19.762095 184.41971,19.455661 100.34699,19.172575 16.274258,18.88949 v 140.02424 c 0,77.01334 0.349091,140.37334 0.775758,140.8 0.426666,0.42667 0.894371,0.77576 1.039343,0.77576 0.144971,0 18.13248,-20.10756 39.972241,-44.68346 z"
   id="path851" /><path
   style="fill:#000000;stroke-width:1.16364"
   d="M 3.4742582,330.74404 C 1.1693211,328.43909 1.1469855,326.86525 1.1469855,166.75576 V 5.0947673 L 4.2130029,2.6830377 C 7.2576572,0.28811228 7.9376254,0.27130809 101.80153,0.27130809 c 93.8639,0 94.54387,0.0168041 97.58853,2.41172961 l 3.06602,2.4117296 V 166.75576 c 0,160.10949 -0.0223,161.68333 -2.32728,163.98828 -3.0641,3.06409 -7.34045,2.9495 -10.85683,-0.29091 -1.56263,-1.44 -19.35257,-21.25501 -39.53319,-44.03334 -20.18064,-22.77835 -39.24901,-44.19598 -42.37419,-47.59475 l -5.68215,-6.1796 -42.84979,48.17657 c -23.567384,26.49712 -43.889508,49.09293 -45.160276,50.21293 -3.063919,2.70041 -7.3284484,2.57876 -10.1981158,-0.2909 z M 58.025242,255.79587 c 21.888901,-24.58149 40.635976,-45.01519 41.660166,-45.40821 1.024192,-0.39302 2.794492,-0.41866 3.934012,-0.057 1.13952,0.36167 19.99358,20.80572 41.89792,45.4312 21.90433,24.62551 40.07065,44.52904 40.3696,44.23009 0.81757,-0.81756 -1.85561,-3.968 -34.527,-40.69139 -39.75545,-44.68599 -45.62714,-50.73832 -49.22402,-50.73832 -3.704338,0 -17.55562,14.22514 -55.9188,57.4281 -25.06218,28.22396 -30.225174,34.49917 -28.384553,34.49917 0.21707,0 18.303774,-20.11213 40.192675,-44.69362 z M 91.624441,19.762061 165.80153,19.453773 91.037895,19.171632 16.274258,18.88949 16.560393,158.23494 16.846528,297.5804 17.14694,158.82537 17.447351,20.07035 Z"
   id="path853" /><path
   style="fill:#000000;stroke-width:1.16364"
   d="M 3.4742582,330.74404 C 1.1693211,328.43909 1.1469855,326.86525 1.1469855,166.75576 V 5.0947673 L 4.2130029,2.6830377 C 7.2576572,0.28811228 7.9376254,0.27130809 101.80153,0.27130809 c 93.8639,0 94.54387,0.0168041 97.58853,2.41172961 l 3.06602,2.4117296 V 166.75576 c 0,160.10949 -0.0223,161.68333 -2.32728,163.98828 -2.86962,2.86962 -7.12442,2.9906 -10.23059,0.2909 -1.28864,-1.12 -17.68036,-19.31636 -36.42607,-40.43636 -18.7457,-21.12 -38.04028,-42.77078 -42.87685,-48.11284 l -8.79376,-9.71283 -5.126329,5.64011 c -2.819482,3.10205 -21.864906,24.49102 -42.323165,47.53102 -20.458259,23.04 -38.471519,43.06909 -40.029467,44.50909 -3.505863,3.24044 -7.7840528,3.35517 -10.8483108,0.29091 z M 61.422722,251.9081 c 20.031654,-22.44758 37.254514,-41.13357 38.27302,-41.52441 1.018508,-0.39083 2.775638,-0.41741 3.904728,-0.059 1.1291,0.35836 20.00078,20.78479 41.93707,45.39205 21.93629,24.60728 40.12595,44.4987 40.42147,44.20319 0.69299,-0.693 -4.83022,-7.13057 -38.90535,-45.34611 -34.98168,-39.2323 -41.6038,-46.01161 -44.94473,-46.01161 -1.74558,0 -6.407104,3.88558 -14.309139,11.92727 -15.572221,15.84745 -70.374987,77.6453 -70.313458,79.28834 0.02664,0.71142 1.728459,-0.58514 3.781818,-2.88122 2.053359,-2.29609 20.122915,-22.54092 40.154571,-44.98851 z M 78.82547,19.761991 140.20153,19.450288 78.237895,19.169889 16.274258,18.88949 16.559341,132.63494 16.844425,246.3804 17.146917,133.22705 17.449409,20.073695 Z"
   id="path855" /><path
   style="fill:#000000;stroke-width:1.16364"
   d="M 3.4742582,330.74404 C 1.1693211,328.43909 1.1469855,326.86525 1.1469855,166.75576 V 5.0947673 L 4.2130029,2.6830377 C 7.2576572,0.28811228 7.9376254,0.27130809 101.80153,0.27130809 c 93.8639,0 94.54387,0.0168041 97.58853,2.41172961 l 3.06602,2.4117296 V 166.75576 c 0,160.10949 -0.0223,161.68333 -2.32728,163.98828 -3.26703,3.26703 -7.73406,2.92725 -11.4734,-0.87273 -1.73193,-1.76 -21.90831,-24.27637 -44.83641,-50.03637 -22.92811,-25.76 -41.84055,-46.83636 -42.02767,-46.83636 -0.18711,0 -19.09942,21.07636 -42.027357,46.83636 -22.927937,25.76 -43.099725,48.27637 -44.826194,50.03637 -3.728222,3.80063 -8.1955097,4.14073 -11.4635108,0.87273 z M 60.830395,252.58319 c 20.345876,-22.81444 37.830552,-41.80241 38.854839,-42.19546 1.024286,-0.39305 2.790606,-0.42003 3.925146,-0.0599 1.58528,0.50315 65.12718,70.27285 78.72148,86.43704 1.41168,1.67853 2.82604,2.79253 3.14304,2.47554 0.6228,-0.62282 -10.2505,-13.18116 -45.26362,-52.27816 -25.18142,-28.11854 -35.51364,-38.4 -38.58956,-38.4 -1.15392,0 -7.11041,5.10545 -13.236648,11.34545 -14.716814,14.9901 -70.956669,78.3961 -70.913068,79.94889 0.01876,0.66812 1.458762,-0.3619 3.2,-2.2889 1.74124,-1.92701 19.812516,-22.17002 40.158391,-44.98447 z M 64.282274,19.761834 111.11062,19.444155 63.69244,19.166823 16.274258,18.88949 l 0.282757,80.581818 0.282755,80.581822 0.307079,-79.98681 0.307078,-79.986806 z"
   id="path857" /><path
   style="fill:#000000;stroke-width:1.16364"
   d="M 3.4742582,330.74404 C 1.1693211,328.43909 1.1469855,326.86525 1.1469855,166.75576 V 5.0947673 L 4.2130029,2.6830377 C 7.2576572,0.28811228 7.9376254,0.27130809 101.80153,0.27130809 c 93.8639,0 94.54387,0.0168041 97.58853,2.41172961 l 3.06602,2.4117296 V 166.75576 c 0,160.10949 -0.0223,161.68333 -2.32728,163.98828 -3.45612,3.45612 -7.7869,2.93396 -12.06389,-1.45455 -2.02714,-2.08 -22.23238,-24.6196 -44.90054,-50.08799 l -41.21482,-46.30618 -3.124393,3.25163 c -1.718414,1.78839 -20.789206,23.14981 -42.379538,47.46981 -21.590332,24.32 -40.53777,45.39637 -42.105416,46.83637 -3.527634,3.24039 -7.8020245,3.35483 -10.8659448,0.29091 z m 52.9538698,-73.3091 c 19.061444,-21.44 36.282867,-40.81454 38.269832,-43.05454 l 3.612662,-4.07273 -4.496298,4.07273 c -8.574511,7.76675 -75.356556,82.51097 -76.221739,85.30938 -0.641586,2.07518 1.351312,-0.0932 38.835543,-42.25484 z m 123.211712,34.12011 c -13.60119,-15.92112 -54.20686,-61.21033 -63.68516,-71.03073 -10.59847,-10.98101 -13.9564,-13.21427 -16.306648,-10.84512 -1.010565,1.0187 -0.86197,1.16724 0.608028,0.60781 1.06999,-0.4072 2.90272,-0.22417 4.07273,0.40674 1.17001,0.6309 19.6691,20.77596 41.1091,44.76678 21.44,23.99083 39.18724,43.4259 39.43832,43.18904 0.25106,-0.23685 -2.1053,-3.42937 -5.23637,-7.09452 z M 53.81375,19.761589 90.165167,19.43693 53.219713,19.16321 16.274258,18.88949 l 0.278358,51.490909 0.278358,51.490911 0.31568,-50.892532 0.315678,-50.89253 z"
   id="path859" /><path
   style="fill:#000000;stroke-width:1.16364"
   d="M 3.4742582,330.74404 C 1.1693211,328.43909 1.1469855,326.86525 1.1469855,166.75576 V 5.0947673 L 4.2130029,2.6830377 C 7.2576572,0.28811228 7.9376254,0.27130809 101.80153,0.27130809 c 93.8639,0 94.54387,0.0168041 97.58853,2.41172961 l 3.06602,2.4117296 V 166.75576 c 0,160.10949 -0.0223,161.68333 -2.32728,163.98828 -3.23024,3.23024 -7.49736,2.90608 -11.48871,-0.87273 -2.60321,-2.46461 -62.61175,-69.5033 -83.34765,-93.11205 l -3.49091,-3.97456 -41.287005,46.36149 c -22.707853,25.49881 -42.946399,48.0633 -44.974546,50.1433 -4.279008,4.38841 -8.609775,4.91049 -12.0657208,1.45455 z M 55.269831,258.59858 c 39.993091,-44.8133 44.556153,-50.14384 31.377135,-36.65454 -7.047921,7.21384 -41.141181,45.14271 -67.346561,74.92326 -1.34438,1.52778 -1.862382,2.57506 -1.151114,2.32727 0.711267,-0.24779 17.41551,-18.51599 37.12054,-40.59599 z M 182.0643,294.3804 c -7.59805,-9.13913 -56.78087,-64.0581 -66.09813,-73.80709 -10.56305,-11.05254 -13.98848,-13.31801 -16.318138,-10.79234 -1.018402,1.10409 -0.987978,1.25253 0.127549,0.62231 0.805729,-0.45521 2.462329,-0.5111 3.681339,-0.12419 1.21902,0.3869 17.04648,17.30796 35.17214,37.60238 33.966,38.03004 45.19108,50.28075 46.07122,50.28075 0.27947,0 -0.90672,-1.70182 -2.63598,-3.78182 z M 46.256266,19.761225 75.037895,19.428748 45.656076,19.159118 16.274258,18.88949 l 0.271736,32.872727 0.271735,32.872727 0.328455,-32.270621 0.328454,-32.270621 z"
   id="path861" /><path
   style="fill:#000000;stroke-width:1.16364"
   d="M 3.4742582,330.74404 C 1.1693211,328.43909 1.1469855,326.86525 1.1469855,166.75576 V 5.0947673 L 4.2130029,2.6830377 C 7.2576572,0.28811228 7.9376254,0.27130809 101.80153,0.27130809 c 93.8639,0 94.54387,0.0168041 97.58853,2.41172961 l 3.06602,2.4117296 V 166.75576 c 0,160.10949 -0.0223,161.68333 -2.32728,163.98828 -3.65541,3.65541 -7.91108,2.955 -12.68926,-2.08844 -2.30091,-2.42864 -22.4904,-24.95345 -44.86553,-50.05512 l -40.68207,-45.63941 -2.511842,2.63693 c -1.381512,1.45033 -20.175433,22.53513 -41.764271,46.85513 -21.588837,24.32 -40.778021,45.65818 -42.642631,47.41818 -4.003528,3.77892 -8.2690114,4.10265 -11.4989378,0.87273 z M 55.645568,258.01676 c 18.23983,-20.48 34.21431,-38.41454 35.498847,-39.85454 1.284536,-1.44 2.041728,-2.61818 1.68265,-2.61818 -1.026747,0 -43.665188,47.30224 -71.810038,79.66465 -1.743012,2.0042 -2.063585,2.73462 -0.76605,1.74545 1.227194,-0.93556 17.15476,-18.45738 35.394591,-38.93738 z m 122.821862,32.29091 c -15.14362,-17.44513 -53.99304,-60.73988 -63.07573,-70.29316 -9.98863,-10.50615 -13.42931,-12.74263 -15.743668,-10.23354 -1.018402,1.10409 -0.987978,1.25253 0.127549,0.62231 0.805729,-0.45521 2.446959,-0.51597 3.647179,-0.13503 1.20023,0.38093 10.74414,10.23291 21.20869,21.89329 47.97079,53.45256 59.37671,66.00068 59.99293,66.00068 0.36376,0 -2.40688,-3.53455 -6.15695,-7.85455 z M 39.864643,19.760597 62.237895,19.418004 39.256076,19.153747 16.274258,18.88949 16.536543,40.125854 16.798829,61.362217 17.14511,40.732704 17.491392,20.103192 Z"
   id="path863" /><path
   style="fill:#000000;stroke-width:1.16364"
   d="M 3.4742582,330.74404 C 1.1693211,328.43909 1.1469855,326.86525 1.1469855,166.75576 V 5.0947673 L 4.2130029,2.6830377 C 7.2576572,0.28811228 7.9376254,0.27130809 101.80153,0.27130809 c 93.8639,0 94.54387,0.0168041 97.58853,2.41172961 l 3.06602,2.4117296 V 166.75576 c 0,160.10949 -0.0223,161.68333 -2.32728,163.98828 -3.92381,3.92381 -7.95191,2.98427 -13.7193,-3.2 -2.83508,-3.04 -23.01149,-25.56465 -44.83647,-50.05478 l -39.68179,-44.5275 -2.507432,2.63659 c -1.37909,1.45013 -20.170928,22.53478 -41.75964,46.85478 -21.588712,24.32 -40.779721,45.65818 -42.646687,47.41818 -4.008632,3.77895 -8.2734284,4.10251 -11.5032228,0.87273 z M 54.808406,258.88949 c 18.697881,-20.96 34.564105,-38.93049 35.258273,-39.93443 3.149595,-4.55508 -18.170323,18.9618 -68.379039,75.42534 -1.280482,1.44 -2.001277,2.61818 -1.601765,2.61818 0.39951,0 16.024649,-17.14909 34.722531,-38.10909 z m 126.092264,34.32727 c -8.42436,-10.13301 -56.13189,-63.21922 -65.09715,-72.43636 -5.6026,-5.76 -8.42567,-8.37818 -6.27351,-5.81818 7.68272,9.13858 73.39405,82.03636 73.94901,82.03636 0.31117,0 -0.8491,-1.70182 -2.57835,-3.78182 z M 104.1288,209.72585 c -0.39554,-0.64 -1.60462,-1.12683 -2.68685,-1.08184 -1.604071,0.0667 -1.537621,0.26659 0.35958,1.08184 3.11379,1.33805 3.15423,1.33805 2.32727,0 z M 34.638192,19.759514 51.765167,19.404107 34.019713,19.146798 16.274258,18.88949 l 0.25022,14.254545 0.250219,14.254546 0.36826,-13.641829 0.368259,-13.641831 z"
   id="path865" /><path
   style="fill:#000000;stroke-width:1.16364"
   d="M 3.4742582,330.74404 C 1.1693211,328.43909 1.1469855,326.86525 1.1469855,166.75576 V 5.0947673 L 4.2130029,2.6830377 C 7.2576572,0.28811228 7.9376254,0.27130809 101.80153,0.27130809 c 93.8639,0 94.54387,0.0168041 97.58853,2.41172961 l 3.06602,2.4117296 V 166.75576 c 0,160.10949 -0.0223,161.68333 -2.32728,163.98828 -2.3264,2.3264 -5.28071,2.907 -8.50198,1.67088 -0.94077,-0.361 -21.53632,-22.89938 -45.7679,-50.08529 l -44.05739,-49.42891 -2.90909,3.36803 c -8.865897,10.2646 -79.105062,88.76022 -82.715847,92.43892 -4.885027,4.9769 -9.0880021,5.6507 -12.7023348,2.03637 z M 53.7196,260.05313 C 87.788887,221.85807 96.144375,212.106 81.884711,227.1804 65.594773,244.40107 19.086878,296.99858 20.14992,296.99858 c 0.338263,0 15.44462,-16.62545 33.56968,-36.94545 z m 128.7315,34.90909 c -19.71799,-22.97745 -77.28591,-86.28692 -70.2671,-77.27521 4.52874,5.81462 70.69868,79.31157 71.4049,79.31157 0.33532,0 -0.17668,-0.91636 -1.1378,-2.03636 z m -78.3223,-85.23637 c -0.39554,-0.64 -1.3428,-1.15562 -2.10503,-1.14582 -0.83272,0.0105 -0.6892,0.46805 0.35958,1.14582 2.23549,1.44469 2.63832,1.44469 1.74545,0 z M 31.158912,19.758039 44.783349,19.389929 30.528804,19.13971 16.274258,18.88949 l 0.234175,9.6 0.234175,9.6 0.395934,-8.981672 0.395933,-8.98167 z"
   id="path867" /><path
   style="fill:#000000;stroke-width:1.16364"
   d="M 3.4742582,330.74404 C 1.1693211,328.43909 1.1469855,326.86525 1.1469855,166.75576 V 5.0947673 L 4.2130029,2.6830377 C 7.2576572,0.28811228 7.9376254,0.27130809 101.80153,0.27130809 c 93.8639,0 94.54387,0.0168041 97.58853,2.41172961 l 3.06602,2.4117296 V 166.75576 c 0,160.10949 -0.0223,161.68333 -2.32728,163.98828 -3.06238,3.06238 -7.3194,2.94925 -10.94661,-0.29091 -1.61202,-1.44 -21.82702,-23.82546 -44.92222,-49.74546 -23.09519,-25.92 -42.27906,-47.04257 -42.63082,-46.93904 -0.35175,0.10356 -19.206742,21.04898 -41.899977,46.54545 -22.693237,25.49647 -42.809723,47.79723 -44.703303,49.55723 -4.066267,3.77942 -8.3233021,4.10104 -11.5516118,0.87273 z M 57.981488,255.01386 c 15.578977,-17.54841 25.004432,-28.49477 20.945455,-24.32526 -7.240788,7.43796 -51.97911,57.59303 -55.582274,62.31196 -3.81993,5.00282 7.249109,-7.13676 34.636819,-37.9867 z m 122.779212,38.2029 c -1.27557,-1.44 -10.1146,-11.47572 -19.64228,-22.3016 -19.62569,-22.29981 -42.41427,-47.54505 -46.83167,-51.88022 l -2.96426,-2.90909 2.25991,3.03613 c 3.08282,4.14169 68.34011,76.67296 68.98362,76.67296 0.28266,0 -0.52974,-1.17818 -1.80532,-2.61818 z M 27.678983,19.755032 37.801531,19.368059 27.037895,19.128774 16.274258,18.88949 l 0.215252,6.690909 0.215253,6.690909 0.425835,-6.064652 0.425836,-6.064651 z"
   id="path869" /><path
   style="fill:#000000;stroke-width:1.16364"
   d="M 3.4742582,330.74404 C 1.1693211,328.43909 1.1469855,326.86525 1.1469855,166.75576 V 5.0947673 L 4.2130029,2.6830377 C 7.2576572,0.28811228 7.9376254,0.27130809 101.80153,0.27130809 c 93.8639,0 94.54387,0.0168041 97.58853,2.41172961 l 3.06602,2.4117296 V 166.75576 c 0,160.10949 -0.0223,161.68333 -2.32728,163.98828 -3.40484,3.40484 -7.5784,2.90404 -12.12183,-1.45455 -2.16821,-2.08 -22.14762,-24.20364 -44.39866,-49.16364 -22.25106,-24.96 -41.06641,-45.38181 -41.81191,-45.38181 -0.7455,0 -19.114775,19.88476 -40.820615,44.18836 -21.705839,24.30361 -41.600857,46.42725 -44.211151,49.16364 -5.354889,5.61358 -9.4990884,6.43929 -13.2903758,2.648 z M 182.67426,295.43348 c 0,-0.22081 -1.17818,-1.399 -2.61818,-2.61818 l -2.61819,-2.21672 2.21672,2.61818 c 2.08317,2.46044 3.01965,3.14792 3.01965,2.21672 z M 25.001531,292.34404 c 1.158384,-1.28 1.844334,-2.32728 1.524334,-2.32728 -0.32,0 -1.529587,1.04728 -2.68797,2.32728 -1.158384,1.28 -1.844335,2.32727 -1.524335,2.32727 0.32,0 1.529587,-1.04727 2.687971,-2.32727 z M 169.70664,280.4477 c -10.12603,-11.32014 -49.01317,-54.41951 -53.74863,-59.57065 -2.85644,-3.10715 -2.98978,-3.15898 -0.99576,-0.38704 3.29907,4.58614 61.78005,69.52675 62.61093,69.52675 0.38121,0 -3.15874,-4.30607 -7.86654,-9.56906 z M 52.485895,261.18564 c 22.46248,-25.23861 31.267954,-35.47917 23.715636,-27.58072 -1.92,2.00799 -12.086502,13.29665 -22.592227,25.08591 -10.505725,11.78927 -20.978452,23.4756 -23.272727,25.96962 -2.294276,2.49403 -3.544204,4.18184 -2.777619,3.75069 0.766585,-0.43114 11.983707,-12.68262 24.926937,-27.2255 z m -27.12629,-241.434786 7.78738,-0.405543 -8.436363,-0.227911 -8.436364,-0.22791 0.195611,4.945454 0.195611,4.945455 0.453372,-4.312001 0.453373,-4.312001 z"
   id="path871" /><path
   style="fill:#000000;stroke-width:1.16364"
   d="M 3.4742582,330.74404 C 1.1693211,328.43909 1.1469855,326.86525 1.1469855,166.75576 V 5.0947673 L 4.2130029,2.6830377 C 7.2576572,0.28811228 7.9376254,0.27130809 101.80153,0.27130809 c 93.8639,0 94.54387,0.0168041 97.58853,2.41172961 l 3.06602,2.4117296 V 166.75576 c 0,160.10949 -0.0223,161.68333 -2.32728,163.98828 -3.61387,3.61387 -7.8169,2.94029 -12.70682,-2.03637 -2.35817,-2.4 -21.84318,-24 -43.30002,-48 -21.45685,-24 -39.82451,-44.30263 -40.81704,-45.11695 -2.08124,-1.70755 -4.725025,1.04654 -52.783967,54.98623 -15.955682,17.90811 -31.146025,34.79538 -33.756319,37.52727 -5.355396,5.60489 -9.5017348,6.42845 -13.2903758,2.63982 z M 182.67426,295.3956 c 0,-0.24163 -0.91637,-1.15799 -2.03637,-2.03636 -1.84559,-1.44741 -1.88675,-1.40626 -0.43934,0.43934 1.52014,1.93833 2.47571,2.55474 2.47571,1.59702 z m -9.4646,-10.94228 c -25.99864,-29.20151 -52.38056,-58.27449 -54.11173,-59.63137 -2.45417,-1.92354 -2.02975,-1.44068 31.99052,36.39481 13.66729,15.2 25.1171,27.63637 25.44402,27.63637 0.32692,0 -1.16834,-1.97991 -3.32281,-4.39981 z M 47.758768,266.45313 c 10.41186,-11.68 20.784423,-23.2 23.050139,-25.6 2.265717,-2.4 3.789558,-4.36364 3.386315,-4.36364 -0.403245,0 -9.500022,9.81818 -20.215064,21.81818 -10.71504,12 -21.066832,23.52 -23.00398,25.6 -1.93715,2.08 -3.212934,3.78182 -2.835078,3.78182 0.377857,0 9.205807,-9.55636 19.617668,-21.23636 z M 23.618649,19.744886 l 6.037427,-0.424891 -6.690909,-0.215253 -6.690909,-0.215252 0.17435,3.781818 c 0.15832,3.434109 0.218403,3.492965 0.653482,0.640144 0.439109,-2.879248 0.983443,-3.177166 6.516559,-3.566566 z"
   id="path873" /><path
   style="fill:#000000;stroke-width:1.16364"
   d="M 3.4742582,330.74404 C 1.1693211,328.43909 1.1469855,326.86525 1.1469855,166.75576 V 5.0947673 L 4.2130029,2.6830377 C 7.2576572,0.28811228 7.9376254,0.27130809 101.80153,0.27130809 c 93.8639,0 94.54387,0.0168041 97.58853,2.41172961 l 3.06602,2.4117296 V 166.75576 c 0,160.10949 -0.0223,161.68333 -2.32728,163.98828 -2.86943,2.86943 -7.08828,2.98799 -10.35124,0.2909 -1.355,-1.12 -21.20674,-22.98181 -44.11498,-48.58181 -27.21897,-30.41725 -42.4194,-46.54546 -43.8679,-46.54546 -1.44882,0 -16.636165,16.12144 -43.848546,46.54546 -22.897605,25.6 -42.746261,47.46181 -44.108127,48.58181 -3.2792,2.69682 -7.4943392,2.57851 -10.3637488,-0.2909 z M 32.565167,283.61676 c 2.171093,-2.24 3.685625,-4.07272 3.365625,-4.07272 -0.32,0 -2.358168,1.83272 -4.529261,4.07272 -2.171093,2.24 -3.685625,4.07273 -3.365625,4.07273 0.32,0 2.358168,-1.83273 4.529261,-4.07273 z m 143.127273,3.70862 c 0,-0.20027 -1.70182,-1.90208 -3.78182,-3.78182 l -3.78182,-3.41771 3.41771,3.78182 c 3.18578,3.52519 4.14593,4.31669 4.14593,3.41771 z m -25.81722,-28.95964 c -10.44053,-11.64807 -21.60096,-23.85294 -24.80096,-27.12196 -7.30631,-7.46386 -3.78218,-3.40176 21.9653,25.31844 11.33168,12.64 20.87652,22.98182 21.21075,22.98182 0.33423,0 -7.93456,-9.53024 -18.37509,-21.1783 z m -98.691871,4.30557 c 7.774144,-8.64 13.872989,-15.70909 13.552989,-15.70909 -0.32,0 -6.942481,7.06909 -14.716625,15.70909 -7.774144,8.64 -13.872989,15.70909 -13.552989,15.70909 0.32,0 6.942481,-7.06909 14.716625,-15.70909 z m 18.618182,-20.94546 c 2.171093,-2.24 3.685625,-4.07272 3.365625,-4.07272 -0.32,0 -2.358169,1.83272 -4.529261,4.07272 -2.171093,2.24 -3.685625,4.07273 -3.365625,4.07273 0.32,0 2.358168,-1.83273 4.529261,-4.07273 z M 22.456474,19.737937 l 4.87233,-0.441856 -5.527273,-0.203296 c -5.052065,-0.185817 -5.515668,0.02181 -5.39229,2.414887 0.09634,1.868603 0.283847,2.053308 0.654945,0.645151 0.357677,-1.357236 2.04064,-2.110935 5.392288,-2.414886 z"
   id="path875" /><path
   style="fill:#000000;stroke-width:1.16364"
   d="M 3.4742582,330.74404 C 1.1693211,328.43909 1.1469855,326.86525 1.1469855,166.75576 V 5.0947673 L 4.2130029,2.6830377 C 7.2574669,0.28826192 7.9412851,0.27130809 101.48801,0.27130809 c 86.91438,0 94.47067,0.15457711 97.58853,1.99634331 l 3.37954,1.9963434 V 166.34038 c 0,160.52487 -0.0222,162.09867 -2.32728,164.40366 -3.56697,3.56697 -7.6314,2.91597 -12.71379,-2.03637 -2.46303,-2.4 -18.26061,-19.81091 -35.10576,-38.69091 -42.88085,-48.06077 -49.00386,-54.69091 -50.50772,-54.69091 -1.50386,0 -7.626865,6.63014 -50.507722,54.69091 -16.845141,18.88 -32.642729,36.29091 -35.105753,38.69091 -5.082396,4.95234 -9.1468151,5.60334 -12.7137968,2.03637 z M 175.69244,287.31051 c 0,-0.20844 -1.44,-1.64844 -3.2,-3.2 l -3.2,-2.82102 2.82102,3.2 c 2.63667,2.99088 3.57898,3.73363 3.57898,2.82102 z M 32.565167,283.61676 c 1.503122,-1.6 2.471131,-2.90909 2.151131,-2.90909 -0.32,0 -1.811646,1.30909 -3.314767,2.90909 -1.503122,1.6 -2.471131,2.90909 -2.151131,2.90909 0.32,0 1.811646,-1.30909 3.314767,-2.90909 z m 131.343073,-9.6 c -2.26109,-2.4 -11.0407,-12.08727 -19.51025,-21.52727 -8.46955,-9.44 -15.69214,-17.16364 -16.05021,-17.16364 -0.35807,0 3.74744,4.84364 9.12335,10.76364 5.37589,5.92 14.15378,15.60727 19.50641,21.52727 5.35262,5.92 10.02673,10.76364 10.38689,10.76364 0.36018,0 -1.19511,-1.96364 -3.45619,-4.36364 z M 41.874258,273.14404 c 2.171093,-2.24 3.685625,-4.07273 3.365625,-4.07273 -0.32,0 -2.358168,1.83273 -4.529261,4.07273 -2.171093,2.24 -3.685625,4.07272 -3.365625,4.07272 0.32,0 2.358168,-1.83272 4.529261,-4.07272 z m 13.963637,-15.36956 c 0,-0.87375 -1.044745,0.05 -5.866813,5.18774 l -5.187733,5.52727 5.527273,-5.18774 c 3.04,-2.85324 5.527273,-5.34052 5.527273,-5.52727 z m 4.654545,-5.5759 c 2.171093,-2.24 3.685625,-4.07273 3.365625,-4.07273 -0.32,0 -2.358168,1.83273 -4.529261,4.07273 -2.171093,2.24 -3.685625,4.07273 -3.365625,4.07273 0.32,0 2.358168,-1.83273 4.529261,-4.07273 z m 9.964112,-11.34545 3.417706,-3.78182 -3.781818,3.4177 c -2.08,1.87974 -3.781818,3.58156 -3.781818,3.78182 0,0.89898 0.960149,0.10752 4.14593,-3.4177 z m 57.526798,-7.0699 c 0,-0.20843 -1.44,-1.64843 -3.2,-3.2 l -3.2,-2.82101 2.82101,3.2 c 2.63668,2.99088 3.57899,3.73363 3.57899,2.82101 z M 21.514404,19.750656 c 3.162597,-0.464773 3.081024,-0.528692 -0.876509,-0.686816 -3.452466,-0.137945 -4.359917,0.250862 -4.345818,1.862014 0.01152,1.321972 0.319062,1.562919 0.876509,0.686816 0.47228,-0.742251 2.427898,-1.580158 4.345818,-1.862014 z"
   id="path877" /><path
   style="fill:#000000;stroke-width:1.16364"
   d="M 3.4742582,330.74404 C 1.1692639,328.43905 1.1469855,326.86525 1.1469855,166.34038 V 4.2639948 L 4.5265254,2.2676514 C 7.6441366,0.42603309 15.183357,0.27130809 101.80153,0.27130809 c 86.61817,0 94.15739,0.154725 97.27501,1.99634331 l 3.37954,1.9963434 V 166.34038 c 0,160.52487 -0.0222,162.09867 -2.32728,164.40366 -3.7555,3.7555 -7.83897,2.95184 -13.30315,-2.61819 -2.66833,-2.72 -20.33341,-22.22545 -39.25575,-43.34545 -47.1666,-52.64456 -44.49475,-49.90667 -47.25917,-48.4272 -1.265807,0.67744 -3.804573,3.02766 -5.641699,5.2227 -4.976565,5.94613 -71.156317,79.51998 -77.308125,85.94558 -5.937819,6.20208 -9.9711396,7.13806 -13.8866478,3.22256 z M 175.69244,287.28802 c 0,-0.22081 -1.17818,-1.39899 -2.61818,-2.61818 l -2.61818,-2.21671 2.21671,2.61818 c 2.08317,2.46044 3.01965,3.14791 3.01965,2.21671 z M 32.565167,283.61676 c 1.503122,-1.6 2.471131,-2.90909 2.151131,-2.90909 -0.32,0 -1.811646,1.30909 -3.314767,2.90909 -1.503122,1.6 -2.471131,2.90909 -2.151131,2.90909 0.32,0 1.811646,-1.30909 3.314767,-2.90909 z m 134.981823,-5.58991 c 0,-0.19445 -1.96364,-2.15809 -4.36364,-4.36364 l -4.36364,-4.01008 4.01009,4.36363 c 3.73249,4.06158 4.71719,4.89867 4.71719,4.01009 z M 41.874258,273.14404 c 1.503122,-1.6 2.471131,-2.9091 2.151131,-2.9091 -0.32,0 -1.811646,1.3091 -3.314767,2.9091 -1.503122,1.6 -2.471131,2.90909 -2.151131,2.90909 0.32,0 1.811646,-1.30909 3.314767,-2.90909 z M 148.9288,257.43494 c -5.2585,-5.76 -9.82274,-10.47272 -10.14274,-10.47272 -0.32,0 3.7206,4.71272 8.97911,10.47272 5.2585,5.76 9.82274,10.47273 10.14274,10.47273 0.32,0 -3.7206,-4.71273 -8.97911,-10.47273 z m -97.745451,5.23637 c 2.171093,-2.24 3.685625,-4.07273 3.365625,-4.07273 -0.32,0 -2.358168,1.83273 -4.529261,4.07273 -2.171093,2.24 -3.685625,4.07273 -3.365625,4.07273 0.32,0 2.358168,-1.83273 4.529261,-4.07273 z m 8.800476,-10.18182 3.417706,-3.78182 -3.781818,3.41771 c -2.08,1.87973 -3.781818,3.58155 -3.781818,3.78181 0,0.89898 0.960148,0.10752 4.14593,-3.4177 z m 78.472255,-7.03657 c 0,-0.19011 -2.22546,-2.41557 -4.94546,-4.94545 l -4.94545,-4.5998 4.59979,4.94546 c 4.27776,4.59922 5.29112,5.48018 5.29112,4.59979 z m -68.654549,-3.72707 c 1.503121,-1.6 2.471131,-2.90909 2.151131,-2.90909 -0.32,0 -1.811646,1.30909 -3.314767,2.90909 -1.503122,1.6 -2.471131,2.90909 -2.151131,2.90909 0.32,0 1.811645,-1.30909 3.314767,-2.90909 z m 57.018179,-9.12874 c 0,-0.22081 -1.17818,-1.39899 -2.61818,-2.61818 l -2.61818,-2.21671 2.21671,2.61818 c 2.08317,2.46044 3.01965,3.14791 3.01965,2.21671 z M 20.928804,19.694942 c 2.505296,-0.510525 2.436993,-0.567188 -0.49208,-0.408222 -1.918747,0.104134 -3.60569,0.945356 -3.870407,1.930043 -0.313668,1.166773 -0.150526,1.302113 0.49208,0.408221 0.528723,-0.735478 2.270407,-1.603997 3.870407,-1.930042 z"
   id="path879" /><path
   style="fill:#000000;stroke-width:1.16364"
   d="M 3.4742582,330.74404 C 1.1692639,328.43905 1.1469855,326.86525 1.1469855,166.34038 V 4.2639948 L 4.5265254,2.2676514 C 7.6441366,0.42603309 15.183357,0.27130809 101.80153,0.27130809 c 86.61817,0 94.15739,0.154725 97.27501,1.99634331 l 3.37954,1.9963434 V 166.34038 c 0,160.52487 -0.0222,162.09867 -2.32728,164.40366 -3.56623,3.56623 -7.63081,2.91558 -12.72119,-2.03637 -2.4671,-2.4 -20.67628,-22.42909 -40.46484,-44.50909 -45.7464,-51.04362 -44.05105,-49.27614 -46.13123,-48.09408 -2.14228,1.21735 -10.437464,10.25912 -52.80995,57.56297 -18.709967,20.88746 -34.854613,38.2982 -35.876988,38.69053 -3.3677955,1.29233 -6.2890884,0.74729 -8.6503438,-1.61396 z M 175.69244,287.28802 c 0,-0.22081 -1.17818,-1.39899 -2.61818,-2.61818 l -2.61818,-2.21671 2.21671,2.61818 c 2.08317,2.46044 3.01965,3.14791 3.01965,2.21671 z M 32.713595,283.32585 c 1.447413,-1.84559 1.406256,-1.88675 -0.439337,-0.43934 -1.12,0.87837 -2.036363,1.79474 -2.036363,2.03636 0,0.95772 0.955561,0.34131 2.4757,-1.59702 z m 133.669755,-6.48807 c 0,-0.20843 -1.44,-1.64843 -3.2,-3.2 l -3.2,-2.82102 2.82101,3.2 c 2.63668,2.99089 3.57899,3.73363 3.57899,2.82102 z M 41.874258,273.14404 c 1.503122,-1.6 2.471131,-2.9091 2.151131,-2.9091 -0.32,0 -1.811646,1.3091 -3.314767,2.9091 -1.503122,1.6 -2.471131,2.90909 -2.151131,2.90909 0.32,0 1.811646,-1.30909 3.314767,-2.90909 z M 148.9288,257.43494 c -4.61561,-5.12 -8.65383,-9.30909 -8.97383,-9.30909 -0.32,0 3.19459,4.18909 7.8102,9.30909 4.61561,5.12 8.65383,9.3091 8.97383,9.3091 0.32,0 -3.19459,-4.1891 -7.8102,-9.3091 z m -97.09043,4.36364 3.417706,-3.78182 -3.781818,3.41771 c -2.08,1.87974 -3.781818,3.58155 -3.781818,3.78182 0,0.89897 0.960149,0.10752 4.14593,-3.41771 z m 8.65407,-9.6 c 1.503121,-1.6 2.471131,-2.90909 2.151131,-2.90909 -0.32,0 -1.811646,1.30909 -3.314767,2.90909 -1.503122,1.6 -2.471131,2.90909 -2.151131,2.90909 0.32,0 1.811646,-1.30909 3.314767,-2.90909 z m 77.96364,-6.75355 c 0,-0.19445 -1.96364,-2.15809 -4.36364,-4.36363 l -4.36364,-4.01009 4.01009,4.36363 c 3.73249,4.06158 4.71719,4.89867 4.71719,4.01009 z m -68.506121,-4.01009 c 1.447413,-1.84559 1.406255,-1.88675 -0.439337,-0.43934 -1.12,0.87837 -2.036364,1.79474 -2.036364,2.03637 0,0.95771 0.955562,0.3413 2.475701,-1.59703 z m 56.869751,-8.8757 c 0,-0.24163 -0.91636,-1.15799 -2.03636,-2.03637 -1.8456,-1.44741 -1.88676,-1.40625 -0.43934,0.43935 1.52014,1.93832 2.4757,2.55474 2.4757,1.59702 z M 20.514293,19.129074 c -1.187981,-0.251809 -2.667684,0.04989 -3.288229,0.670428 -0.728596,0.728596 0.03654,0.890778 2.159964,0.457838 2.435443,-0.496556 2.728053,-0.789167 1.128265,-1.128266 z"
   id="path881" /><path
   style="fill:#000000;stroke-width:1.16364"
   d="M 3.4742582,330.74404 C 1.1692335,328.43901 1.1469855,326.86525 1.1469855,166.11937 V 3.8219819 l 3.433123,-1.775337 C 7.5741464,0.49836776 20.008444,0.27130809 101.80153,0.27130809 c 81.79308,0 94.22739,0.22705967 97.22142,1.77533681 l 3.43313,1.775337 V 166.11937 c 0,160.74588 -0.0222,162.31964 -2.32728,164.62467 -2.36492,2.36492 -5.28272,2.90624 -8.66645,1.60777 -1.03123,-0.39572 -17.16935,-17.80663 -35.86249,-38.69091 -37.38722,-41.76961 -49.2379,-54.67434 -52.25419,-56.90185 -2.53374,-1.87117 -1.18778,-3.2477 -50.518825,51.66636 -21.348637,23.76476 -39.658421,43.53203 -40.688408,43.92727 -3.3814767,1.2976 -6.2997636,0.75577 -8.6641788,-1.60864 z M 32.713595,283.32585 c 1.447413,-1.84559 1.406256,-1.88675 -0.439337,-0.43934 -1.12,0.87837 -2.036363,1.79474 -2.036363,2.03636 0,0.95772 0.955561,0.34131 2.4757,-1.59702 z M 166.38335,276.8153 c 0,-0.22082 -1.17818,-1.399 -2.61818,-2.61819 l -2.61818,-2.21671 2.21671,2.61818 c 2.08317,2.46044 3.01965,3.14792 3.01965,2.21672 z M 42.022686,272.85313 c 1.447413,-1.8456 1.406256,-1.88676 -0.439337,-0.43935 -1.12,0.87837 -2.036364,1.79474 -2.036364,2.03637 0,0.95772 0.955562,0.3413 2.475701,-1.59702 z m 9.160663,-10.18182 c 1.503122,-1.6 2.471131,-2.90909 2.151131,-2.90909 -0.32,0 -1.811646,1.30909 -3.314767,2.90909 -1.503122,1.6 -2.471131,2.90909 -2.151131,2.90909 0.32,0 1.811646,-1.30909 3.314767,-2.90909 z m 104.727271,2.54498 c 0,-0.20027 -1.70182,-1.90208 -3.78182,-3.78182 l -3.78181,-3.41771 3.4177,3.78182 c 3.18578,3.52519 4.14593,4.31668 4.14593,3.41771 z m -8.14545,-9.3091 c 0,-0.20026 -1.70182,-1.90208 -3.78182,-3.78181 l -3.78182,-3.41771 3.41771,3.78182 c 3.18578,3.52519 4.14593,4.31668 4.14593,3.4177 z M 59.910622,252.7804 c 1.158384,-1.28 1.844334,-2.32727 1.524334,-2.32727 -0.32,0 -1.529587,1.04727 -2.687971,2.32727 -1.158383,1.28 -1.844334,2.32727 -1.524334,2.32727 0.32,0 1.529587,-1.04727 2.687971,-2.32727 z m 77.381818,-8.52444 c 0,-0.20843 -1.44,-1.64843 -3.2,-3.2 l -3.2,-2.82102 2.82102,3.2 c 2.63667,2.99089 3.57898,3.73364 3.57898,2.82102 z m -67.342481,-2.82102 c 1.447413,-1.84559 1.406255,-1.88675 -0.439337,-0.43934 -1.12,0.87837 -2.036364,1.79474 -2.036364,2.03637 0,0.95771 0.955562,0.3413 2.475701,-1.59703 z M 20.613653,19.350096 c -0.386668,-0.386666 -1.390304,-0.428007 -2.230304,-0.09187 -0.928271,0.371463 -0.652539,0.647195 0.703031,0.703031 1.226666,0.05053 1.913938,-0.224498 1.527273,-0.611165 z"
   id="path883" /><path
   style="fill:#000000;stroke-width:1.16364"
   d="M 3.4742582,330.74404 C 1.1692335,328.43901 1.1469855,326.86525 1.1469855,166.11937 V 3.8219819 l 3.433123,-1.775337 C 7.5741464,0.49836776 20.008444,0.27130809 101.80153,0.27130809 c 81.79308,0 94.22739,0.22705967 97.22142,1.77533681 l 3.43313,1.775337 V 166.11937 c 0,160.74588 -0.0222,162.31964 -2.32728,164.62467 -2.36034,2.36034 -5.2825,2.90632 -8.64637,1.61547 -1.0202,-0.39148 -19.59138,-20.42057 -41.2693,-44.50909 -21.67791,-24.08851 -41.46901,-45.7689 -43.9802,-48.17865 l -4.56581,-4.38135 -9.292975,9.61771 c -5.111136,5.28975 -24.840824,26.96979 -43.843752,48.17787 -19.002928,21.20809 -35.3864,38.88082 -36.407718,39.27273 -3.3658901,1.29162 -6.2876024,0.74611 -8.6484168,-1.61469 z M 166.38335,276.77742 c 0,-0.24163 -0.91636,-1.15799 -2.03636,-2.03636 -1.8456,-1.44742 -1.88676,-1.40626 -0.43935,0.43934 1.52014,1.93833 2.47571,2.55474 2.47571,1.59702 z M 42.022686,272.85313 c 1.447413,-1.8456 1.406256,-1.88676 -0.439337,-0.43935 -1.12,0.87837 -2.036364,1.79474 -2.036364,2.03637 0,0.95772 0.955562,0.3413 2.475701,-1.59702 z m 113.887934,-7.65172 c 0,-0.20843 -1.44,-1.64843 -3.2,-3.2 l -3.2,-2.82101 2.82102,3.2 c 2.63667,2.99088 3.57898,3.73363 3.57898,2.82101 z M 51.331777,262.3804 c 1.447413,-1.8456 1.406255,-1.88676 -0.439337,-0.43934 -1.12,0.87837 -2.036364,1.79473 -2.036364,2.03636 0,0.95772 0.955562,0.34131 2.475701,-1.59702 z m 96.433393,-6.47321 c 0,-0.20026 -1.70182,-1.90208 -3.78182,-3.78181 l -3.78182,-3.41771 3.41771,3.78182 c 3.18578,3.52519 4.14593,4.31668 4.14593,3.4177 z m -87.124302,-3.99952 c 1.447413,-1.8456 1.406255,-1.88675 -0.439337,-0.43934 -1.12,0.87837 -2.036364,1.79473 -2.036364,2.03636 0,0.95772 0.955562,0.34131 2.475701,-1.59702 z m 76.651572,-7.67419 c 0,-0.22081 -1.17818,-1.399 -2.61818,-2.61818 l -2.61818,-2.21672 2.21671,2.61818 c 2.08317,2.46044 3.01965,3.14792 3.01965,2.21672 z"
   id="path885" /><path
   style="fill:#000000;stroke-width:1.16364"
   d="M 3.4742582,330.74404 C 1.1692335,328.43901 1.1469855,326.86525 1.1469855,166.11937 V 3.8219819 l 3.433123,-1.775337 C 7.5741464,0.49836776 20.008444,0.27130809 101.80153,0.27130809 c 81.79308,0 94.22739,0.22705967 97.22142,1.77533681 l 3.43313,1.775337 V 166.11937 c 0,160.74588 -0.0222,162.31964 -2.32728,164.62467 -2.35432,2.35432 -5.2822,2.90643 -8.62023,1.62551 -1.00581,-0.38596 -19.83927,-20.67687 -41.85214,-45.09091 -22.01289,-24.41403 -41.81824,-46.09853 -44.01191,-48.18778 l -3.98849,-3.79865 -8.714453,9.03501 c -4.79295,4.96925 -24.526671,26.65139 -43.852714,48.18253 -19.326043,21.53115 -35.967355,39.46569 -36.980694,39.85454 -3.3515489,1.28612 -6.2764276,0.73723 -8.6339108,-1.62025 z M 155.91062,265.17893 c 0,-0.22081 -1.17818,-1.39899 -2.61818,-2.61818 l -2.61818,-2.21671 2.21671,2.61818 c 2.08317,2.46044 3.01965,3.14791 3.01965,2.21671 z M 51.331777,262.3804 c 1.447413,-1.8456 1.406255,-1.88676 -0.439337,-0.43934 -1.12,0.87837 -2.036364,1.79473 -2.036364,2.03636 0,0.95772 0.955562,0.34131 2.475701,-1.59702 z m 95.269753,-7.67419 c 0,-0.22082 -1.17818,-1.399 -2.61818,-2.61819 l -2.61818,-2.21671 2.21671,2.61818 c 2.08317,2.46044 3.01965,3.14792 3.01965,2.21672 z"
   id="path887" /><path
   style="fill:#000000;stroke-width:1.16364"
   d="M 3.4742582,330.74404 C 1.1692335,328.43901 1.1469855,326.86525 1.1469855,166.11937 V 3.8219819 l 3.433123,-1.775337 C 7.5741464,0.49836776 20.008444,0.27130809 101.80153,0.27130809 c 81.79308,0 94.22739,0.22705967 97.22142,1.77533681 l 3.43313,1.775337 V 166.11937 c 0,160.74588 -0.0222,162.31964 -2.32728,164.62467 -1.28,1.28 -3.87019,2.32727 -5.75599,2.32727 -3.03743,0 -8.13341,-5.2123 -44.65348,-45.67273 -22.67362,-25.12 -42.76527,-47.11841 -44.64812,-48.88534 l -3.42336,-3.21261 -8.696296,9.03079 c -4.782962,4.96694 -24.521433,26.64972 -43.863269,48.18395 -19.341836,21.53424 -35.989479,39.46879 -36.994763,39.85454 -3.3370715,1.28056 -6.2651611,0.72823 -8.6192638,-1.62587 z M 155.91062,265.14106 c 0,-0.24163 -0.91636,-1.158 -2.03636,-2.03637 -1.8456,-1.44741 -1.88676,-1.40625 -0.43934,0.43935 1.52014,1.93832 2.4757,2.55474 2.4757,1.59702 z m -9.30909,-10.47273 c 0,-0.24163 -0.91636,-1.15799 -2.03636,-2.03636 -1.8456,-1.44742 -1.88676,-1.40626 -0.43935,0.43934 1.52014,1.93833 2.47571,2.55474 2.47571,1.59702 z"
   id="path889" /><path
   style="fill:#000000;stroke-width:1.16364"
   d="M 3.4742582,330.74404 C 1.1692335,328.43901 1.1469855,326.86525 1.1469855,166.11937 V 3.8219819 l 3.433123,-1.775337 C 7.5741464,0.49836776 20.008444,0.27130809 101.80153,0.27130809 c 81.79308,0 94.22739,0.22705967 97.22142,1.77533681 l 3.43313,1.775337 V 166.11937 c 0,160.74588 -0.0222,162.31964 -2.32728,164.62467 -1.28,1.28 -3.86929,2.32727 -5.75397,2.32727 -3.02932,0 -7.71296,-4.75667 -40.38858,-41.01818 -20.32904,-22.56 -40.34988,-44.56086 -44.49076,-48.89081 l -7.52887,-7.87263 -3.426146,3.21808 c -1.88438,1.76995 -21.981077,23.77081 -44.659326,48.89081 -36.497272,40.4269 -41.626359,45.67273 -44.6563981,45.67273 -1.8827705,0 -4.4704917,-1.04727 -5.7504917,-2.32727 z"
   id="path891" /></svg>
