<?xml version="1.0" encoding="UTF-8" standalone="no"?>
<svg
   xmlns:dc="http://purl.org/dc/elements/1.1/"
   xmlns:cc="http://creativecommons.org/ns#"
   xmlns:rdf="http://www.w3.org/1999/02/22-rdf-syntax-ns#"
   xmlns:svg="http://www.w3.org/2000/svg"
   xmlns="http://www.w3.org/2000/svg"
   xmlns:sodipodi="http://sodipodi.sourceforge.net/DTD/sodipodi-0.dtd"
   xmlns:inkscape="http://www.inkscape.org/namespaces/inkscape"
   version="1.1"
   id="Capa_1"
   x="0px"
   y="0px"
   viewBox="0 0 203.55219 333.96362"
   xml:space="preserve"
   sodipodi:docname="bookmark.svg"
   width="203.55219"
   height="333.96362"
   inkscape:version="1.0.1 (3bc2e813f5, 2020-09-07)"><metadata
   id="metadata43"><rdf:RDF><cc:Work
       rdf:about=""><dc:format>image/svg+xml</dc:format><dc:type
         rdf:resource="http://purl.org/dc/dcmitype/StillImage" /><dc:title></dc:title></cc:Work></rdf:RDF></metadata><defs
   id="defs41" /><sodipodi:namedview
   pagecolor="#ffffff"
   bordercolor="#666666"
   borderopacity="1"
   objecttolerance="10"
   gridtolerance="10"
   guidetolerance="10"
   inkscape:pageopacity="0"
   inkscape:pageshadow="2"
   inkscape:window-width="1920"
   inkscape:window-height="1051"
   id="namedview39"
   showgrid="false"
   fit-margin-top="0"
   fit-margin-left="0"
   fit-margin-right="0"
   fit-margin-bottom="0"
   inkscape:zoom="0.859375"
   inkscape:cx="220.49244"
   inkscape:cy="86.380399"
   inkscape:window-x="-9"
   inkscape:window-y="-9"
   inkscape:window-maximized="1"
   inkscape:current-layer="Capa_1" />
<g
   id="g6"
   transform="matrix(0.57936944,0,0,0.65227273,-46.542485,0)">
	<g
   id="g4">
		<path
   d="M 416.667,0 H 95.333 c -8.284,0 -15,6.716 -15,15 v 482 c 0,6.067 3.655,11.536 9.26,13.858 1.856,0.769 3.805,1.142 5.737,1.142 3.904,0 7.74,-1.523 10.61,-4.394 L 256.003,357.545 406.06,507.606 c 4.29,4.29 10.742,5.573 16.347,3.252 5.605,-2.322 9.26,-7.791 9.26,-13.858 V 15 c 0,-8.284 -6.716,-15 -15,-15 z M 256.002,321.332 c -3.978,0 -7.793,1.58 -10.606,4.394 L 110.333,460.787 V 30 H 401.666 V 460.785 L 266.609,325.726 c -2.813,-2.814 -6.628,-4.394 -10.607,-4.394 z"
   id="path2" />
	</g>
</g>
<g
   id="g8"
   transform="translate(-228.11482,-178.03636)">
</g>
<g
   id="g10"
   transform="translate(-228.11482,-178.03636)">
</g>
<g
   id="g12"
   transform="translate(-228.11482,-178.03636)">
</g>
<g
   id="g14"
   transform="translate(-228.11482,-178.03636)">
</g>
<g
   id="g16"
   transform="translate(-228.11482,-178.03636)">
</g>
<g
   id="g18"
   transform="translate(-228.11482,-178.03636)">
</g>
<g
   id="g20"
   transform="translate(-228.11482,-178.03636)">
</g>
<g
   id="g22"
   transform="translate(-228.11482,-178.03636)">
</g>
<g
   id="g24"
   transform="translate(-228.11482,-178.03636)">
</g>
<g
   id="g26"
   transform="translate(-228.11482,-178.03636)">
</g>
<g
   id="g28"
   transform="translate(-228.11482,-178.03636)">
</g>
<g
   id="g30"
   transform="translate(-228.11482,-178.03636)">
</g>
<g
   id="g32"
   transform="translate(-228.11482,-178.03636)">
</g>
<g
   id="g34"
   transform="translate(-228.11482,-178.03636)">
</g>
<g
   id="g36"
   transform="translate(-228.11482,-178.03636)">
</g>
</svg>
