<?xml version="1.0" encoding="UTF-8" standalone="no"?>
<svg
   xmlns:dc="http://purl.org/dc/elements/1.1/"
   xmlns:cc="http://creativecommons.org/ns#"
   xmlns:rdf="http://www.w3.org/1999/02/22-rdf-syntax-ns#"
   xmlns:svg="http://www.w3.org/2000/svg"
   xmlns="http://www.w3.org/2000/svg"
   xmlns:sodipodi="http://sodipodi.sourceforge.net/DTD/sodipodi-0.dtd"
   xmlns:inkscape="http://www.inkscape.org/namespaces/inkscape"
   data-name="Layer 1"
   viewBox="0 0 20.000097 19.506634"
   version="1.1"
   id="svg4"
   sodipodi:docname="github-handle.svg"
   width="20.000097"
   height="19.506634"
   inkscape:version="1.0.1 (3bc2e813f5, 2020-09-07)">
  <metadata
     id="metadata10">
    <rdf:RDF>
      <cc:Work
         rdf:about="">
        <dc:format>image/svg+xml</dc:format>
        <dc:type
           rdf:resource="http://purl.org/dc/dcmitype/StillImage" />
        <dc:title></dc:title>
      </cc:Work>
    </rdf:RDF>
  </metadata>
  <defs
     id="defs8" />
  <sodipodi:namedview
     pagecolor="#ffffff"
     bordercolor="#666666"
     borderopacity="1"
     objecttolerance="10"
     gridtolerance="10"
     guidetolerance="10"
     inkscape:pageopacity="0"
     inkscape:pageshadow="2"
     inkscape:window-width="1920"
     inkscape:window-height="1051"
     id="namedview6"
     showgrid="false"
     fit-margin-top="0"
     fit-margin-left="0"
     fit-margin-right="0"
     fit-margin-bottom="0"
     inkscape:zoom="36.666667"
     inkscape:cx="10.000005"
     inkscape:cy="8.6623909"
     inkscape:window-x="-9"
     inkscape:window-y="-9"
     inkscape:window-maximized="1"
     inkscape:current-layer="svg4" />
  <path
     d="M 10.000005,0 A 10.00042,10.00042 0 0 0 6.8375253,19.48749 c 0.5,0.08752 0.6875,-0.21247 0.6875,-0.475 0,-0.23749 -0.01251,-1.025 -0.01251,-1.86249 -2.51251,0.46249 -3.16251,-0.61247 -3.36251,-1.17497 a 3.636,3.636 0 0 0 -1.025,-1.41253 c -0.35,-0.1875 -0.85,-0.65 -0.01251,-0.66248 a 2.00117,2.00117 0 0 1 1.53751,1.02497 2.13742,2.13742 0 0 0 2.91248,0.825 2.10376,2.10376 0 0 1 0.63752,-1.33746 c -2.225,-0.25 -4.55,-1.11254 -4.55,-4.9375 a 3.89187,3.89187 0 0 1 1.025,-2.6875 3.59373,3.59373 0 0 1 0.1,-2.65 c 0,0 0.83747,-0.26251 2.75,1.025 a 9.42747,9.42747 0 0 1 4.9999997,0 c 1.91248,-1.3 2.75,-1.025 2.75,-1.025 a 3.59323,3.59323 0 0 1 0.1,2.65 3.869,3.869 0 0 1 1.025,2.6875 c 0,3.83747 -2.33752,4.6875 -4.5625,4.9375 a 2.36814,2.36814 0 0 1 0.675,1.85 c 0,1.33752 -0.01251,2.41248 -0.01251,2.75 0,0.26251 0.1875,0.575 0.6875,0.475 A 10.0053,10.0053 0 0 0 10.000005,0 Z"
     id="path2" />
</svg>
