<?xml version="1.0" encoding="UTF-8" standalone="no"?>
<svg
   xmlns:dc="http://purl.org/dc/elements/1.1/"
   xmlns:cc="http://creativecommons.org/ns#"
   xmlns:rdf="http://www.w3.org/1999/02/22-rdf-syntax-ns#"
   xmlns:svg="http://www.w3.org/2000/svg"
   xmlns="http://www.w3.org/2000/svg"
   xmlns:xlink="http://www.w3.org/1999/xlink"
   xmlns:sodipodi="http://sodipodi.sourceforge.net/DTD/sodipodi-0.dtd"
   xmlns:inkscape="http://www.inkscape.org/namespaces/inkscape"
   id="03030b4a-9996-4111-83fa-29dc66776d7b"
   data-name="Layer 1"
   width="1000.8279"
   height="738.81873"
   viewBox="0 0 1000.828 738.81871"
   version="1.1"
   sodipodi:docname="undraw_organize_resume_utk5.svg"
   inkscape:version="1.0.1 (3bc2e813f5, 2020-09-07)">
  <metadata
     id="metadata245">
    <rdf:RDF>
      <cc:Work
         rdf:about="">
        <dc:format>image/svg+xml</dc:format>
        <dc:type
           rdf:resource="http://purl.org/dc/dcmitype/StillImage" />
        <dc:title>roganize resume</dc:title>
      </cc:Work>
    </rdf:RDF>
  </metadata>
  <sodipodi:namedview
     pagecolor="#ffffff"
     bordercolor="#666666"
     borderopacity="1"
     objecttolerance="10"
     gridtolerance="10"
     guidetolerance="10"
     inkscape:pageopacity="0"
     inkscape:pageshadow="2"
     inkscape:window-width="1920"
     inkscape:window-height="1051"
     id="namedview243"
     showgrid="false"
     fit-margin-top="0"
     fit-margin-left="0"
     fit-margin-right="0"
     fit-margin-bottom="0"
     inkscape:zoom="1.1910723"
     inkscape:cx="500.38867"
     inkscape:cy="344.72791"
     inkscape:window-x="-9"
     inkscape:window-y="-9"
     inkscape:window-maximized="1"
     inkscape:current-layer="03030b4a-9996-4111-83fa-29dc66776d7b"
     inkscape:document-rotation="0" />
  <defs
     id="defs12">
    <linearGradient
       id="c172ced9-c526-43de-8081-a3b8b4d2db3a"
       x1="534.53998"
       y1="548.83002"
       x2="534.53998"
       y2="87.830002"
       gradientUnits="userSpaceOnUse">
      <stop
         offset="0"
         stop-color="gray"
         stop-opacity="0.25"
         id="stop2" />
      <stop
         offset="0.54"
         stop-color="gray"
         stop-opacity="0.12"
         id="stop4" />
      <stop
         offset="1"
         stop-color="gray"
         stop-opacity="0.1"
         id="stop6" />
    </linearGradient>
    <linearGradient
       id="b55b1914-9010-4651-994a-27bfb9322cf9"
       x1="1028.8199"
       y1="815.40997"
       x2="1028.8199"
       y2="407.41"
       xlink:href="#c172ced9-c526-43de-8081-a3b8b4d2db3a"
       gradientTransform="translate(-99.606323,-80.601302)" />
    <linearGradient
       id="f578ae08-57d5-484c-bc58-a6933ab5fa51"
       x1="799.21002"
       y1="589.03003"
       x2="799.21002"
       y2="340.82999"
       xlink:href="#c172ced9-c526-43de-8081-a3b8b4d2db3a"
       gradientTransform="translate(-0.00632248,-0.01130194)" />
    <linearGradient
       id="c6440606-d3b5-4d29-adcc-566625c77aaa"
       x1="2225.3501"
       y1="817.54999"
       x2="2225.3501"
       y2="423.13"
       gradientTransform="translate(-1655.6063,-80.601302)"
       xlink:href="#c172ced9-c526-43de-8081-a3b8b4d2db3a" />
    <linearGradient
       inkscape:collect="always"
       xlink:href="#c172ced9-c526-43de-8081-a3b8b4d2db3a"
       id="linearGradient1070"
       gradientUnits="userSpaceOnUse"
       x1="534.53998"
       y1="548.83002"
       x2="534.53998"
       y2="87.830002" />
  </defs>
  <title
     id="title14">roganize resume
    </title>
  <path
     d="m 27.653677,463.8787 c -12,1.95 -27.04999948,7.53 -26.90999948,20.5 0.07,6.58 4.44000008,12.19 8.69000008,17 a 323,323 0 0 0 61.3299994,54.17 c 10.82,7.33 22.45,14.34 29.640003,25.67 7.19,11.33 9,25.75 9.57,39.47 a 303.38,303.38 0 0 1 -11.340003,96.25 c 35.230003,6.71 74.520003,12.59 103.880003,-8.6 17.58,-12.69 29.47,-33.95 49.06,-42.75 13.08,-5.88 27.89,-5.36 42.15,-4.61 q 101.25,5.33 202,20 c 28.13,4.1 56.8,8.74 84.63,3.44 27.83,-5.3 55.21,-22.59 65.47,-50.62 1.58,-4.32 3,-9.14 6.54,-11.74 3.2,-2.32 7.39,-2.27 11.28,-2.13 l 235.08,8.08 c 12.88,0.44 26.21,0.8 38,-4.5 11.43,-5.13 20.22,-15 28.68,-24.67 19.35,-22.06 40.16002,-49.2 34.47,-79.14 -4.55,-24 -24.89,-40.77 -45.06,-52.51 -20.17,-11.74 -42.42,-21.35 -57.24,-40.12 -22.55,-28.57 -21.66,-69.46 -23.06,-106.53 a 591.77,591.77 0 0 0 -12.35,-99.83 c -6.11,-28.89 -14.62,-57.82 -30.53,-82.22 -15.91,-24.4 -40.24,-43.940002 -67.76,-47.520002 -35.94,-4.68 -72.07,17.740002 -107.23,8.22 -29.7,-8 -50.14,-36.43 -74.75,-56.13 -43.71,-34.9999999 -101.07,-42.32999994 -155.3,-42.99999994 -57.5,-0.73 -116.52,5.09000004 -167.77,32.08999994 -11.74,6.18 -23.22,13.66 -31.35,24.58 -12.46,16.75 -15.48,39.25 -23.63,58.830002 -32.85,78.84 -139.690003,95.84 -174.370003,173.84 -12.31,27.67 -12.19,59.94 -3.22,89 9.65,31.27 36.81,48.54 47.58,75.8 -11.59,7.46 -32.13,7.39 -46.18,9.68 z"
     fill="#5890ff"
     opacity="0.1"
     id="path16" />
  <g
     opacity="0.2"
     id="g34"
     transform="translate(-0.00632248,-0.01130194)">
    <path
       d="m 985.15,451.51 c 0,0 4.8,-63.77 40.84,-98.42 a 96.9,96.9 0 0 0 28.83,-54.09 163,163 0 0 0 2,-29.73"
       transform="translate(-99.6,-80.59)"
       fill="none"
       stroke="#535461"
       stroke-miterlimit="10"
       stroke-width="2"
       id="path18" />
    <path
       d="m 1079.44,247.3 c -2.66,7 -23.1,22.61 -23.1,22.61 0,0 -5,-25.21 -2.36,-32.24 a 13.614861,13.614861 0 1 1 25.47,9.63 z"
       transform="translate(-99.6,-80.59)"
       fill="#5890ff"
       id="path20" />
    <path
       d="m 1085.76,294.21 c -6.05,4.46 -31.68,6.42 -31.68,6.42 0,0 9.49,-23.89 15.54,-28.35 a 13.610529,13.610529 0 1 1 16.14,21.92 z"
       transform="translate(-99.6,-80.59)"
       fill="#5890ff"
       id="path22" />
    <path
       d="m 1059.67,360.43 c -7.48,0.79 -30.59,-10.45 -30.59,-10.45 0,0 20.25,-15.83 27.72,-16.63 a 13.61583,13.61583 0 1 1 2.87,27.08 z"
       transform="translate(-99.6,-80.59)"
       fill="#5890ff"
       id="path24" />
    <path
       d="m 1028.65,406.09 c -7.24,2 -31.92,-5.13 -31.92,-5.13 0,0 17.28,-19 24.52,-21.07 a 13.612494,13.612494 0 1 1 7.4,26.2 z"
       transform="translate(-99.6,-80.59)"
       fill="#5890ff"
       id="path26" />
    <path
       d="m 1026.83,291.89 c 3.19,6.81 24.77,20.77 24.77,20.77 0,0 3.07,-25.52 -0.12,-32.33 a 13.613009,13.613009 0 1 0 -24.65,11.56 z"
       transform="translate(-99.6,-80.59)"
       fill="#5890ff"
       id="path28" />
    <path
       d="m 991.22,345.75 c 5.08,5.54 29.85,12.41 29.85,12.41 0,0 -4.71,-25.27 -9.79,-30.81 a 13.614008,13.614008 0 0 0 -20.07,18.4 z"
       transform="translate(-99.6,-80.59)"
       fill="#5890ff"
       id="path30" />
    <path
       d="m 963.8,402.84 c 4.07,6.32 27.33,17.27 27.33,17.27 0,0 -0.37,-25.7 -4.44,-32 a 13.615383,13.615383 0 0 0 -22.89,14.75 z"
       transform="translate(-99.6,-80.59)"
       fill="#5890ff"
       id="path32" />
  </g>
  <polygon
     points="904.94,123.8 904.94,87.83 164.14,87.83 164.14,123.8 164.14,548.83 904.94,548.83 "
     fill="url(#c172ced9-c526-43de-8081-a3b8b4d2db3a)"
     id="polygon36"
     style="fill:url(#linearGradient1070)"
     transform="translate(-0.00632248,-0.01130194)" />
  <rect
     x="171.96368"
     y="92.688698"
     width="725.15002"
     height="35.209999"
     fill="#f6f7f9"
     id="rect38" />
  <g
     opacity="0.2"
     id="g42"
     transform="translate(-0.00632248,-0.01130194)">
    <rect
       x="171.97"
       y="92.699997"
       width="725.15002"
       height="35.209999"
       fill="#5890ff"
       id="rect40" />
  </g>
  <rect
     x="171.96368"
     y="127.8987"
     width="725.15002"
     height="416.04999"
     fill="#f6f7f9"
     id="rect44" />
  <circle
     cx="189.35368"
     cy="110.0787"
     r="7.8299999"
     fill="#f6f7f9"
     id="circle46" />
  <circle
     cx="210.21368"
     cy="110.0787"
     r="7.8299999"
     fill="#f6f7f9"
     id="circle48" />
  <circle
     cx="231.08368"
     cy="110.0787"
     r="7.8299999"
     fill="#f6f7f9"
     id="circle50" />
  <g
     opacity="0.2"
     id="g54"
     transform="translate(-0.00632248,-0.01130194)">
    <rect
       x="197.17999"
       y="179.64999"
       width="373.01001"
       height="26.950001"
       fill="#5890ff"
       id="rect52" />
  </g>
  <g
     opacity="0.2"
     id="g58"
     transform="translate(-0.00632248,-0.01130194)">
    <rect
       x="665.83002"
       y="179.64999"
       width="195.63"
       height="26.950001"
       fill="#5890ff"
       id="rect56" />
  </g>
  <g
     opacity="0.2"
     id="g70"
     transform="translate(-0.00632248,-0.01130194)">
    <rect
       x="269.78"
       y="434.41"
       width="26.08"
       height="86.080002"
       fill="#5890ff"
       id="rect60" />
    <rect
       x="320.20999"
       y="372.67001"
       width="26.08"
       height="147.81"
       fill="#5890ff"
       id="rect62" />
    <rect
       x="370.64001"
       y="310.94"
       width="26.08"
       height="209.53999"
       fill="#5890ff"
       id="rect64" />
    <rect
       x="421.07001"
       y="330.94"
       width="26.08"
       height="189.55"
       fill="#5890ff"
       id="rect66" />
    <rect
       x="471.5"
       y="390.06"
       width="26.08"
       height="130.42"
       fill="#5890ff"
       id="rect68" />
  </g>
  <g
     opacity="0.2"
     id="g74"
     transform="translate(-0.00632248,-0.01130194)">
    <rect
       x="665.40002"
       y="265.73001"
       width="195.63"
       height="240.41"
       fill="#5890ff"
       id="rect72" />
  </g>
  <path
     d="m 997.84368,436.7887 c -1.25,-6.36 -3.65,-12.58 -3.71,-19.06 -0.09,-10.52 5.51,-22.74 -1.85,-30.51 -1.68,-1.77 -3.93,-3.09 -5.18,-5.16 a 11.36,11.36 0 0 1 -1.3,-5.82 c -0.12,-12.27 6.64,-24.73 2.59,-36.36 a 12.36,12.36 0 0 0 -4.64,-6.47 c -2.34,-1.52 -5,-1.81 -7.87,-1.76 -2.59,0 -5.32,0.29 -8,0.34 a 17.29,17.29 0 0 1 -4.49,-0.59 c -3.1,-0.88 -5.73,-2.91 -8.8,-3.91 a 14.38,14.38 0 0 0 -5,-0.69 c -6.72,-0.22 -12.86,4.25 -17.64,8.58 a 65.86,65.86 0 0 1 -7.55,5.49 c 0.4,-0.28 -9.33,6.4 -5.67,6.47 a 12.74,12.74 0 0 1 7.24,2.52 19.56,19.56 0 0 0 1,22.68 c -1.59,-1.56 -3.35,-3.27 -5.15,-5 -5.36,-5.27 -12.85,-12.34 -16.37,-14.27 -5.79,-3.11 -14.06,-9.87 -14.06,-9.87 0,0 -10.75,6 -7.44,14.33 a 33.45,33.45 0 0 1 4.61,1.81 8.63,8.63 0 0 0 0.63,3.23 35.6,35.6 0 0 1 9.55,4.68 16.28,16.28 0 0 1 0.92,1.43 c 1.43,2.5 5.88,7.05 11.32,12.11 3.82,3.83 8.85,8.41 13.86,12.82 -1.51,3 -3.1,6 -3.38,9 a 11.09,11.09 0 0 1 -1.13,-0.52 c -7.44,-4 -24.8,-3.58 -24.8,-3.58 0,0 -14.47,-7.56 -17.36,-24.67 0,0 -2.89,-10.35 -2.07,-13.13 h -0.05 l 0.37,-0.08 3.47,-6.29 a 2.78,2.78 0 0 0 -2.28,-4.08 c -16.92,-1.52 -17.72,14 -17.72,14 h 0.15 l -0.05,0.13 c 2.07,9.95 3.72,9.15 3.31,17.11 l 6.61,17.51 c 0,0 0.41,6 12.4,13.93 11.99,7.93 25.63,20.3 25.63,20.3 0,0 -7.23,3.78 -4.55,21.09 3.28,21.16 -1.65,51.34 -1.65,51.34 v 19.5 l 0.92,-0.25 c -0.12,0.65 -0.23,1.34 -0.35,2.09 a 109.8,109.8 0 0 0 -0.57,29.61 c 2.48,20.7 12.4,49 12.4,49 0,0 3.72,9.95 4.55,17.91 a 16.51,16.51 0 0 0 1.06,4.6 36.17,36.17 0 0 1 2.9,13.81 97.24,97.24 0 0 0 6.37,34.91 c 4.19,10.64 5.75,16.88 6.21,20.52 -3,3.88 -6.86,8.11 -9.93,8.53 -5.79,0.8 -16.95,1.59 -9.51,11.14 a 6.8,6.8 0 0 0 0.86,0.91 c -5.65,0.9 -11.86,2.88 -5.82,10.63 7.44,9.55 51.25,5.17 51.25,5.17 0,0 0.28,-5.31 0,-11.14 3.07,-0.21 5,-0.4 5,-0.4 0,0 1.24,-23.08 -4.13,-25.87 a 11.6,11.6 0 0 0 -2.9,0.7 c -0.58,-3.19 -1,-7.16 -1.3,-10.09 l 2.13,-0.16 v -0.16 h 0.13 v -34.78 c 0,0 -2.48,-21.49 -11.57,-31 a 19.32,19.32 0 0 1 -3,-4 l -0.12,-0.25 c 0.06,-2.72 0.06,-6.39 0,-10.6 l 0.13,-0.23 c 0.16,-0.26 0.32,-0.49 0.47,-0.7 a 8.71,8.71 0 0 1 0.68,-0.8 l 0.13,-0.17 v 0 c 0,0 5,-6 21.91,-43.78 10.33,-23.06 7.6,-36 3.9,-42.67 -0.78,-3 -2.41,-9.72 -4.45,-21.23 a 83.23,83.23 0 0 1 -1.19,-14.79 29.74,29.74 0 0 0 7.84,0.88 26.62,26.62 0 0 0 12,-2.56 c -2.7,-3.94 -5.52,-8.56 -4.16,-13.09 1.54,-5.16 7.64,-7.53 11.16,-11.69 4.24,-5.03 4.35,-12.21 3.1,-18.58 z"
     fill="url(#b55b1914-9010-4651-994a-27bfb9322cf9)"
     id="path76"
     style="fill:url(#b55b1914-9010-4651-994a-27bfb9322cf9)" />
  <path
     d="m 893.10368,347.6487 c 0,0 -10.26,5.92 -7.1,14.21 0,0 10.66,3.16 15,11.05 4.34,7.89 37.89,36.31 37.89,36.31 l 24.5,-12.23 c 0,0 -8.51,-11.36 -35.43,-19.3 0,0 -15.87,-17 -21.4,-20.17 -5.53,-3.17 -13.46,-9.87 -13.46,-9.87 z"
     fill="#797c9c"
     id="path78" />
  <path
     d="m 898.10368,352.6487 c 0,0 -10.26,5.92 -7.1,14.21 0,0 10.66,3.16 15,11.05 4.34,7.89 37.89,36.31 37.89,36.31 l 24.5,-12.23 c 0,0 -8.51,-11.36 -35.43,-19.3 0,0 -15.87,-17 -21.4,-20.17 -5.53,-3.17 -13.46,-9.87 -13.46,-9.87 z"
     opacity="0.05"
     id="path80" />
  <path
     d="m 15.613677,643.8087 c 0,0 -57.66,34.79 48.63,88.35 0,0 23.42,-43.48 -2.47,-78.93 a 34.91,34.91 0 0 0 -45.29,-9.92 z"
     fill="#5890ff"
     id="path82" />
  <path
     d="m 16.273677,643.0687 c 0,0 49.35,37.75 48,89.08"
     fill="none"
     stroke="#535461"
     stroke-miterlimit="10"
     id="path84" />
  <path
     d="m 67.033677,732.7887 c 0,0 -18.07,-61.39 3.36,-106.5 a 96.9,96.9 0 0 0 7.84,-60.79 163,163 0 0 0 -8.61,-28.53"
     fill="none"
     stroke="#535461"
     stroke-miterlimit="10"
     stroke-width="2"
     id="path86" />
  <path
     d="m 83.003677,508.3987 c 0,7.52 -13.61,29.32 -13.61,29.32 0,0 -13.61,-21.8 -13.61,-29.32 a 13.615,13.615 0 1 1 27.23,0 z"
     fill="#5890ff"
     id="path88" />
  <path
     d="m 105.50368,550.0787 c -4.09,6.31 -27.360003,17.21 -27.360003,17.21 0,0 0.42,-25.7 4.51,-32 a 13.612151,13.612151 0 1 1 22.850003,14.8 z"
     fill="#5890ff"
     id="path90" />
  <path
     d="m 104.52368,621.2387 c -6.710003,3.39 -32.310003,1 -32.310003,1 0,0 13.34,-22 20.05,-25.36 a 13.613264,13.613264 0 0 1 12.260003,24.31 z"
     fill="#5890ff"
     id="path92" />
  <path
     d="m 91.653677,674.9187 c -6,4.47 -31.67,6.49 -31.67,6.49 0,0 9.43,-23.91 15.48,-28.38 a 13.613304,13.613304 0 1 1 16.19,21.89 z"
     fill="#5890ff"
     id="path94" />
  <path
     d="m 49.563677,568.7487 c 5.39,5.24 30.52,10.67 30.52,10.67 0,0 -6.15,-25 -11.55,-30.2 a 13.623701,13.623701 0 1 0 -19,19.53 z"
     fill="#5890ff"
     id="path96" />
  <path
     d="m 35.303677,631.7187 c 6.71,3.39 32.31,1 32.31,1 0,0 -13.34,-22 -20.05,-25.36 a 13.613263,13.613263 0 0 0 -12.26,24.31 z"
     fill="#5890ff"
     id="path98" />
  <path
     d="m 29.853677,694.8187 c 6,4.47 31.67,6.49 31.67,6.49 0,0 -9.43,-23.91 -15.48,-28.38 a 13.613304,13.613304 0 1 0 -16.19,21.89 z"
     fill="#5890ff"
     id="path100" />
  <path
     d="m 83.003677,508.3987 c 0,7.52 -13.61,29.32 -13.61,29.32 0,0 -13.61,-21.8 -13.61,-29.32 a 13.615,13.615 0 1 1 27.23,0 z"
     opacity="0.25"
     id="path102" />
  <path
     d="m 105.50368,550.0787 c -4.09,6.31 -27.360003,17.21 -27.360003,17.21 0,0 0.42,-25.7 4.51,-32 a 13.612151,13.612151 0 1 1 22.850003,14.8 z"
     opacity="0.25"
     id="path104" />
  <path
     d="m 104.52368,621.2387 c -6.710003,3.39 -32.310003,1 -32.310003,1 0,0 13.34,-22 20.05,-25.36 a 13.613264,13.613264 0 0 1 12.260003,24.31 z"
     opacity="0.25"
     id="path106" />
  <path
     d="m 91.653677,674.9187 c -6,4.47 -31.67,6.49 -31.67,6.49 0,0 9.43,-23.91 15.48,-28.38 a 13.613304,13.613304 0 1 1 16.19,21.89 z"
     opacity="0.25"
     id="path108" />
  <path
     d="m 49.563677,568.7487 c 5.39,5.24 30.52,10.67 30.52,10.67 0,0 -6.15,-25 -11.55,-30.2 a 13.623701,13.623701 0 1 0 -19,19.53 z"
     opacity="0.25"
     id="path110" />
  <path
     d="m 35.303677,631.7187 c 6.71,3.39 32.31,1 32.31,1 0,0 -13.34,-22 -20.05,-25.36 a 13.613263,13.613263 0 0 0 -12.26,24.31 z"
     opacity="0.25"
     id="path112" />
  <path
     d="m 29.853677,694.8187 c 6,4.47 31.67,6.49 31.67,6.49 0,0 -9.43,-23.91 -15.48,-28.38 a 13.613304,13.613304 0 1 0 -16.19,21.89 z"
     opacity="0.25"
     id="path114" />
  <path
     d="m 108.84368,733.9587 c 0,0 -18.070003,-61.35 3.39,-106.5 a 96.9,96.9 0 0 0 7.84,-60.79 163,163 0 0 0 -8.61,-28.53"
     fill="none"
     stroke="#535461"
     stroke-miterlimit="10"
     stroke-width="2"
     id="path116" />
  <path
     d="m 124.81368,509.5987 c 0,7.52 -13.61,29.32 -13.61,29.32 0,0 -13.610003,-21.8 -13.610003,-29.32 a 13.615001,13.615001 0 0 1 27.230003,0 z"
     fill="#5890ff"
     id="path118" />
  <path
     d="m 147.32368,551.2387 c -4.09,6.31 -27.36,17.21 -27.36,17.21 0,0 0.42,-25.7 4.51,-32 a 13.61215,13.61215 0 0 1 22.85,14.8 z"
     fill="#5890ff"
     id="path120" />
  <path
     d="m 146.33368,622.3987 c -6.71,3.39 -32.31,1 -32.31,1 0,0 13.34,-22 20.05,-25.36 a 13.635589,13.635589 0 1 1 12.26,24.36 z"
     fill="#5890ff"
     id="path122" />
  <path
     d="m 133.46368,676.0887 c -6,4.47 -31.67,6.49 -31.67,6.49 0,0 9.43,-23.91 15.48,-28.38 a 13.613304,13.613304 0 1 1 16.19,21.89 z"
     fill="#5890ff"
     id="path124" />
  <path
     d="m 91.393677,569.9087 c 5.39,5.24 30.520003,10.67 30.520003,10.67 0,0 -6.15,-25 -11.55,-30.2 a 13.623702,13.623702 0 1 0 -19.000003,19.53 z"
     fill="#5890ff"
     id="path126" />
  <path
     d="m 77.113677,632.8787 c 6.71,3.39 32.310003,1 32.310003,1 0,0 -13.340003,-22 -20.050003,-25.36 a 13.613263,13.613263 0 1 0 -12.26,24.31 z"
     fill="#5890ff"
     id="path128" />
  <path
     d="m 71.663677,695.9887 c 6,4.47 31.670003,6.49 31.670003,6.49 0,0 -9.430003,-23.91 -15.480003,-28.38 a 13.613304,13.613304 0 0 0 -16.19,21.89 z"
     fill="#5890ff"
     id="path130" />
  <rect
     x="24.533678"
     y="731.81873"
     width="953"
     height="7"
     fill="#5890ff"
     id="rect132" />
  <rect
     x="698.22363"
     y="340.8187"
     width="201.97"
     height="248.2"
     fill="url(#f578ae08-57d5-484c-bc58-a6933ab5fa51)"
     id="rect134"
     style="fill:url(#f578ae08-57d5-484c-bc58-a6933ab5fa51)" />
  <rect
     x="701.39368"
     y="344.71872"
     width="195.63"
     height="240.41"
     fill="#5890ff"
     id="rect136" />
  <rect
     x="714.53363"
     y="365.8187"
     width="40"
     height="40"
     fill="#e8eaf1"
     id="rect138" />
  <rect
     x="734.53363"
     y="429.8187"
     width="142"
     height="8"
     fill="#e8eaf1"
     id="rect140" />
  <rect
     x="734.53363"
     y="446.8187"
     width="142"
     height="8"
     fill="#e8eaf1"
     id="rect142" />
  <rect
     x="734.53363"
     y="463.8187"
     width="142"
     height="8"
     fill="#e8eaf1"
     id="rect144" />
  <rect
     x="734.53363"
     y="480.8187"
     width="142"
     height="8"
     fill="#e8eaf1"
     id="rect146" />
  <rect
     x="734.53363"
     y="497.8187"
     width="142"
     height="8"
     fill="#e8eaf1"
     id="rect148" />
  <rect
     x="734.53363"
     y="514.81873"
     width="142"
     height="8"
     fill="#e8eaf1"
     id="rect150" />
  <rect
     x="734.53363"
     y="531.81873"
     width="142"
     height="8"
     fill="#e8eaf1"
     id="rect152" />
  <path
     d="m 957.04368,684.2887 c 0,0 1.18,17.36 3.16,19.34 1.98,1.98 -17.76,3.16 -17.76,3.16 l 2.76,-22.5 z"
     fill="#ffb9b9"
     id="path154" />
  <path
     d="m 957.04368,684.2887 c 0,0 1.18,17.36 3.16,19.34 1.98,1.98 -17.76,3.16 -17.76,3.16 l 2.76,-22.5 z"
     opacity="0.05"
     id="path156" />
  <path
     d="m 961.39368,697.7087 c 0,0 -2.76,0 -12.63,5.13 0,0 -6.71,-1.18 -9.47,-10.66 0,0 -8.29,14.21 -13.81,15 -5.52,0.79 -16.18,1.58 -9.08,11.05 7.1,9.47 48.94,5.13 48.94,5.13 0,0 1.17,-22.89 -3.95,-25.65 z"
     fill="#e4e2f3"
     id="path158" />
  <path
     d="m 961.39368,697.7087 c 0,0 -2.76,0 -12.63,5.13 0,0 -6.71,-1.18 -9.47,-10.66 0,0 -8.29,14.21 -13.81,15 -5.52,0.79 -16.18,1.58 -9.08,11.05 7.1,9.47 48.94,5.13 48.94,5.13 0,0 1.17,-22.89 -3.95,-25.65 z"
     opacity="0.05"
     id="path160" />
  <path
     d="m 955.46368,711.1287 -2.76,7.5 -18.15,-5.13 1,-7.44 0.25,-1.8 0.69,-5 c 0,0 15.39,-3.95 15.39,-2 a 30.62,30.62 0 0 0 1,4.81 c 0.63,2.43 1.42,5.19 2,7 0.34,1.27 0.58,2.06 0.58,2.06 z"
     fill="#ffb9b9"
     id="path162" />
  <path
     d="m 945.55368,608.1987 a 10.79,10.79 0 0 0 0,11 19.12,19.12 0 0 0 2.84,3.93 c 8.68,9.47 11.05,30.78 11.05,30.78 v 34.33 l -5.92,0.45 -9.47,0.73 -14.21,-58.41 c 0,0 -8.29,-42.62 -4.34,-50.12 3.95,-7.5 7.5,-54.46 7.5,-54.46 l 3.28,-3.39 7.77,-8.05 h 22.5 a 15.13,15.13 0 0 1 4.38,4.89 c 3.78,6.25 7.17,19.25 -3.19,43.25 -16.18,37.49 -20.92,43.41 -20.92,43.41 a 9.09,9.09 0 0 0 -1.27,1.66 z"
     fill="#4c4c78"
     id="path164" />
  <path
     d="m 945.68368,608.0287 a 10.79,10.79 0 0 0 0,11 19.12,19.12 0 0 0 2.84,3.93 c 8.68,9.47 11.05,30.78 11.05,30.78 v 34.33 l -5.92,0.45 -9.47,0.73 -14.21,-58.41 c 0,0 -8.29,-42.62 -4.34,-50.12 3.95,-7.5 7.5,-54.46 7.5,-54.46 l 3.28,-3.39 7.77,-8.05 h 22.5 a 15.13,15.13 0 0 1 4.38,4.89 c 3.78,6.25 7.17,19.25 -3.19,43.25 -16.18,37.49 -20.92,43.41 -20.92,43.41 a 9.09,9.09 0 0 0 -1.27,1.66 z"
     opacity="0.05"
     id="path166" />
  <path
     d="m 952.92368,702.1187 -17.09,2.14 0.69,-5 c 0,0 15.39,-3.95 15.39,-2 a 30.62,30.62 0 0 0 1.01,4.86 z"
     opacity="0.1"
     id="path168" />
  <path
     d="m 944.39368,557.6087 c 0,0 1,31.07 1.14,50.59 0,4.42 0,8.24 0,11 a 24.33,24.33 0 0 1 -0.32,4.33 c -1.18,3.55 1.18,11.44 1.18,11.44 a 113.91,113.91 0 0 1 7.1,48.94 v 17.36 l -18.94,2.37 c 0,0 3.16,-2.37 -5.53,-25.26 a 99.76,99.76 0 0 1 -6.09,-34.62 37.05,37.05 0 0 0 -2.77,-13.7 16.9,16.9 0 0 1 -1,-4.56 c -0.79,-7.89 -4.34,-17.76 -4.34,-17.76 0,0 -9.47,-28 -11.84,-48.54 a 113,113 0 0 1 0.55,-29.36 73.27,73.27 0 0 1 1.42,-7.34 c 0,0 38.58,-24.28 53.15,-7.5 a 19,19 0 0 1 3.29,5.53 36.47,36.47 0 0 1 1.86,6.15 c 4.53,22.25 -18.86,30.93 -18.86,30.93 z"
     fill="#4c4c78"
     id="path170" />
  <circle
     cx="943.22363"
     cy="364.62872"
     r="20.129999"
     fill="#ffb9b9"
     id="circle172" />
  <path
     d="m 932.17368,377.2487 c 0,0 8.29,23.28 0,35.52 -8.29,12.24 26.44,8.29 26.44,8.29 l 13.42,-16.18 c 0,0 -15.79,0 -16.58,-27.63 -0.79,-27.63 -23.28,0 -23.28,0 z"
     fill="#ffb9b9"
     id="path174" />
  <path
     d="m 972.03368,524.4587 a 51.79,51.79 0 0 1 -8.79,2.2 c -4.91,0.76 -10.71,0.79 -14.1,-2.2 -2,-1.77 -7,-2 -12.91,-1.42 -12.53,1.2 -29.48,5.87 -32.72,6.79 a 73.27,73.27 0 0 1 1.42,-7.34 c 0,0 38.58,-24.28 53.15,-7.5 h 8.42 a 15.13,15.13 0 0 1 4.38,4.89 c 0.73,3.14 1.15,4.58 1.15,4.58 z"
     opacity="0.1"
     id="path176" />
  <path
     d="m 955.46368,711.1287 -2.76,7.5 -18.15,-5.13 1,-7.44 c 3.12,6.9 8.44,7.84 8.44,7.84 a 64.37,64.37 0 0 1 10.86,-4.76 c 0.37,1.2 0.61,1.99 0.61,1.99 z"
     opacity="0.1"
     id="path178" />
  <path
     d="m 956.64368,709.1587 c 0,0 -2.76,0 -12.63,5.13 0,0 -6.71,-1.18 -9.47,-10.66 0,0 -8.29,14.21 -13.81,15 -5.52,0.79 -16.18,1.58 -9.08,11.05 7.1,9.47 48.94,5.13 48.94,5.13 0,0 1.18,-22.89 -3.95,-25.65 z"
     fill="#e4e2f3"
     id="path180" />
  <path
     d="m 863.01368,368.4787 c 0,0 0.77,-15.37 16.92,-13.87 a 2.76,2.76 0 0 1 2.18,4 l -3.31,6.23 z"
     fill="#ffb9b9"
     id="path182" />
  <path
     d="m 956.25368,409.6087 c 0,0 -19.34,-3.16 -24.47,-7.1 0,0 -3.95,7.5 -11.05,3.55 -7.1,-3.95 -23.68,-3.55 -23.68,-3.55 a 35.79,35.79 0 0 1 -16.58,-24.47 c 0,0 -2.76,-10.26 -2,-13 0,0 -10.26,-10.66 -15.39,3.55 2,9.87 3.55,9.08 3.16,17 l 6.31,17.36 c 0,0 0.39,5.92 11.84,13.81 11.45,7.89 24.47,20.13 24.47,20.13 0,0 -6.91,3.75 -4.34,20.92 3.14,21 -1.58,50.91 -1.58,50.91 v 19.34 c 0,0 39.47,-11.44 46.17,-5.53 6.7,5.91 22.89,0 22.89,0 0,0 -2,-6.71 -4.74,-22.89 -2.74,-16.18 0.39,-32 0.39,-32 0,0 10.26,-27.23 15,-38.28 4.74,-11.05 -3.55,-26 -11.84,-31.57 -8.29,-5.57 -11.37,-2.21 -11.37,-2.21 0,0 14.57,10.48 -3.19,14.03 z"
     fill="#797c9c"
     id="path184" />
  <path
     d="m 905.54368,466.6187 c 0,0 3.15,-0.76 18.93,-3.13 15.78,-2.37 43.41,3.16 43.41,3.16"
     opacity="0.05"
     id="path186" />
  <path
     d="m 919.18368,351.5887 c 9,0.19 15.66,11.29 11.67,19.3 -1.75,3.52 -5.14,6.62 -4.79,10.53 0.16,1.78 1.11,3.39 1.52,5.13 1.89,8 -7.68,15.49 -5.49,23.39 a 16.89,16.89 0 0 0 3.42,5.73 l 16.62,20.94 a 15.73,15.73 0 0 1 2.48,3.84 16.19,16.19 0 0 1 0.72,6.15 c -0.08,10 0.57,20.73 6.47,28.84 7.09,9.74 21.54,13.24 32.29,7.81 -2.58,-3.91 -5.27,-8.49 -4,-13 1.47,-5.11 7.29,-7.47 10.65,-11.59 4.06,-5 4.16,-12.1 3,-18.41 -1.16,-6.31 -3.49,-12.48 -3.54,-18.9 -0.08,-10.43 5.26,-22.55 -1.77,-30.25 -1.61,-1.76 -3.75,-3.06 -4.95,-5.12 a 11.63,11.63 0 0 1 -1.24,-5.78 c -0.11,-12.16 6.34,-24.53 2.47,-36.06 a 12.25,12.25 0 0 0 -4.43,-6.42 c -5.48,-3.69 -13.08,-0.11 -19.42,-2 -3,-0.87 -5.47,-2.89 -8.4,-3.88 -7.9,-2.67 -15.21,2.69 -20.67,7.83 a 63,63 0 0 1 -7.21,5.44 c 0.39,-0.21 -8.9,6.41 -5.4,6.48 z"
     opacity="0.1"
     id="path188" />
  <path
     d="m 920.18368,351.5887 c 9,0.19 15.66,11.29 11.67,19.3 -1.75,3.52 -5.14,6.62 -4.79,10.53 0.16,1.78 1.11,3.39 1.52,5.13 1.89,8 -7.68,15.49 -5.49,23.39 a 16.89,16.89 0 0 0 3.42,5.73 l 16.62,20.94 a 15.73,15.73 0 0 1 2.48,3.84 16.19,16.19 0 0 1 0.72,6.15 c -0.08,10 0.57,20.73 6.47,28.84 7.09,9.74 21.54,13.24 32.29,7.81 -2.58,-3.91 -5.27,-8.49 -4,-13 1.47,-5.11 7.29,-7.47 10.65,-11.59 4.06,-5 4.16,-12.1 3,-18.41 -1.16,-6.31 -3.49,-12.48 -3.54,-18.9 -0.08,-10.43 5.26,-22.55 -1.77,-30.25 -1.61,-1.76 -3.75,-3.06 -4.95,-5.12 a 11.63,11.63 0 0 1 -1.24,-5.78 c -0.11,-12.16 6.34,-24.53 2.47,-36.06 a 12.25,12.25 0 0 0 -4.43,-6.42 c -5.48,-3.69 -13.08,-0.11 -19.42,-2 -3,-0.87 -5.47,-2.89 -8.4,-3.88 -7.9,-2.67 -15.21,2.69 -20.67,7.83 a 63,63 0 0 1 -7.21,5.44 c 0.39,-0.21 -8.9,6.41 -5.4,6.48 z"
     fill="#b36362"
     id="path190" />
  <path
     d="m 618.07368,541.9387 a 34.68,34.68 0 0 1 -5.91,-7.25 c -3.46,-5.44 -9.25,-8.37 -13.22,-9.83 v -1.77 h 0.24 l -0.11,-1.64 h 0.11 l -0.28,-4.34 v 0 0 l -1.41,-21.68 c 0,0 -5.1,-14.53 3.9,-27.83 9,-13.3 0.56,-26.06 -7.9,-31.05 0,0 -4,-21.07 -0.56,-26.06 a 145.27,145.27 0 0 0 -14.2,-7.23 q -0.11,-0.39 -0.21,-0.8 c -0.09,-2 -0.21,-3.93 -0.32,-5.89 a 21.54,21.54 0 0 1 0.56,-3 c 0.11,-0.41 0.23,-0.83 0.36,-1.26 a 21.63,21.63 0 0 0 13.81,-20.06 21.24,21.24 0 0 0 -1.34,-7.44 9.48,9.48 0 0 0 1,-2.36 9.63,9.63 0 0 0 -1.34,-6.92 c -2.24,-5 -7.89,-9.57 -12,-11.24 -5.87,-2.4 -14.71,-1.83 -20.82,-1.1 -3.43,0.41 -7.35,1.57 -8.59,4.74 a 32.85,32.85 0 0 0 -0.78,3.65 c -1.28,4.84 -6.83,7.1 -10.26,10.8 -3,3.27 -4.36,7.69 -5.34,12 a 110.79,110.79 0 0 0 -2,37.67 c 0.35,2.9 0.81,5.78 1.3,8.66 -2.06,2.9 -3.92,8 -3.07,17 l -6.77,32.16 -2.82,18.85 a 16.48,16.48 0 0 0 5.08,14.42 c 4.32,4.24 9.56,11.41 12.79,16.06 a 38.24,38.24 0 0 0 -2.06,12.78 c 0.07,2 0.18,3.89 0.32,5.71 a 50.84,50.84 0 0 0 2.16,11.3 c 0.79,7.74 2.36,17.64 5.42,24 l 1.13,33.82 c 0,0 -1.69,31.05 -5.08,37.15 -3.39,6.1 7.34,57.67 7.34,57.67 v 7.21 l -1.81,5.28 -0.45,-0.34 c -8.47,10.54 0,14.42 0,14.42 0,0 2.3,0.11 6,0.25 a 6.81,6.81 0 0 0 3.61,7.51 c 0,0 48,2.22 56.46,0 8.46,-2.22 6.21,-10 1.69,-9.43 a 20.65,20.65 0 0 1 -6.76,-0.89 c 2.64,-3.09 0.53,-7.28 -2.83,-6.87 -4.52,0.55 -14.68,-3.47 -14.68,-3.47 v 0.07 a 7.63,7.63 0 0 0 -1,-0.3 113.24,113.24 0 0 1 -11.17,-3.15 c -2.18,-4.67 -7.2,-17.23 -3.6,-27 1.63,-4.4 2.16,-10.26 2.16,-15.94 a 182.08,182.08 0 0 1 7.43,-50.58 l 6.77,-23.27 c 0,0 9.6,-28.28 10.16,-36 l -0.08,-11.32 c 7.94,5.11 14.24,3.56 18.27,1.19 a 4.35,4.35 0 0 0 0.7,-7.06 z m -75.35,-58.82 c 0.19,-0.81 0.35,-1.7 0.49,-2.63 q 2,0 4,0 a 20.6,20.6 0 0 1 2,10.91 c -3.06,-1 -7.64,-3.38 -6.49,-8.28 z"
     fill="url(#c6440606-d3b5-4d29-adcc-566625c77aaa)"
     id="path192"
     style="fill:url(#c6440606-d3b5-4d29-adcc-566625c77aaa)" />
  <path
     d="m 548.09368,706.2487 -2.17,6.52 7.06,7.06 23.36,5.43 16.84,-1.63 -1.09,-6 v 0 a 7.21,7.21 0 0 0 -5.35,-5.26 c -6.92,-1.63 -20.12,-5.33 -22.9,-10.49 z"
     fill="#db8b8b"
     id="path194" />
  <path
     d="m 548.09368,706.2487 -2.17,6.52 7.06,7.06 23.36,5.43 16.84,-1.63 -1.09,-6 v 0 a 7.21,7.21 0 0 0 -5.35,-5.26 c -6.92,-1.63 -20.12,-5.33 -22.9,-10.49 z"
     opacity="0.1"
     id="path196" />
  <path
     d="m 587.75368,722.0087 -3.26,-4.35 3.26,-5 c 0,0 9.78,3.95 14.12,3.4 4.34,-0.55 6.52,7.06 -1.63,9.24 -8.15,2.18 -54.33,0 -54.33,0 0,0 -8.15,-3.8 0,-14.12 l 7.06,5.43 c 0,0 12,6.52 17.93,5.43 z"
     fill="#474463"
     id="path198" />
  <path
     d="m 602.39368,731.2387 -16.84,1.63 -23.34,-5.47 -7.06,-7 0.58,-1.73 0.81,-2.42 0.79,-2.37 15.75,-4.35 a 9.76,9.76 0 0 0 3.19,3.2 c 5.12,3.5 14.31,6 19.7,7.29 a 5.65,5.65 0 0 1 0.67,0.2 7.18,7.18 0 0 1 4.68,5.06 z"
     fill="#db8b8b"
     id="path200" />
  <path
     d="m 602.39368,731.2387 -16.84,1.63 -23.34,-5.47 -7.06,-7 0.58,-1.73 6.49,5 c 0,0 12,6.52 17.93,5.43 h 16.84 l -3.26,-4.35 2.93,-4.52 a 7.18,7.18 0 0 1 4.68,5.06 z"
     opacity="0.1"
     id="path202" />
  <path
     d="m 596.98368,729.6087 -3.26,-4.35 3.26,-5 c 0,0 9.78,3.95 14.12,3.4 4.34,-0.55 6.52,7.06 -1.63,9.24 -8.15,2.18 -54.33,0 -54.33,0 0,0 -8.15,-3.8 0,-14.12 l 7.06,5.43 c 0,0 12,6.52 17.93,5.43 z"
     fill="#474463"
     id="path204" />
  <path
     d="m 583.39368,414.5187 c 0,0 -26.08,2.72 -22.27,-8.15 a 19.56,19.56 0 0 0 0.8,-9.59 26.59,26.59 0 0 0 -4.61,-11.05 l 24.45,3.8 a 30.62,30.62 0 0 0 -3.31,7.85 c -2.91,11.53 4.94,17.14 4.94,17.14 z"
     fill="#db8b8b"
     id="path206" />
  <path
     d="m 538.85368,538.3987 c 0,0 0.54,23.36 6,34.77 l 1.09,33.14 c 0,0 -1.63,30.42 -4.89,36.4 -3.26,5.98 7.06,56.5 7.06,56.5 v 8.69 c 0,0 17.36,6.5 22.28,-1.1 l -4.89,-64.65 2.17,-89.64 z"
     fill="#474463"
     id="path208" />
  <path
     d="m 538.85368,538.3987 c 0,0 0.54,23.36 6,34.77 l 1.09,33.14 c 0,0 -1.63,30.42 -4.89,36.4 -3.26,5.98 7.06,56.5 7.06,56.5 v 8.69 c 0,0 17.36,6.5 22.28,-1.1 l -4.89,-64.65 2.17,-89.64 z"
     opacity="0.1"
     id="path210" />
  <path
     d="m 527.99368,463.3987 -3.26,8.69 -2.72,18.47 a 16.34,16.34 0 0 0 4.89,14.12 c 6.52,6.52 15.21,20.1 15.21,20.1 l 10.32,-31 c 0,0 -10.32,-1.63 -8.69,-8.69 1.63,-7.06 1.09,-20.1 1.09,-20.1 z"
     fill="#cbcdda"
     id="path212" />
  <path
     d="m 527.99368,462.3987 -3.26,8.69 -2.72,18.47 a 16.34,16.34 0 0 0 4.89,14.12 c 6.52,6.52 15.21,20.1 15.21,20.1 l 10.32,-31 c 0,0 -10.32,-1.63 -8.69,-8.69 1.63,-7.06 1.09,-20.1 1.09,-20.1 z"
     opacity="0.05"
     id="path214" />
  <path
     d="m 576.27368,712.7087 c -7,11 -17.81,4.75 -19.74,3.51 l 0.79,-2.37 15.75,-4.35 a 9.76,9.76 0 0 0 3.2,3.21 z"
     opacity="0.1"
     id="path216" />
  <path
     d="m 598.07368,559.5687 c -0.54,7.61 -9.78,35.31 -9.78,35.31 l -6.51,22.8 a 181.41,181.41 0 0 0 -7.16,49.6 c 0,5.56 -0.51,11.3 -2.08,15.61 -4.35,12 4.35,28.25 4.35,28.25 -7.61,13.58 -20.64,4.35 -20.64,4.35 v -8.69 c 0,0 -10.32,-47.26 -7.61,-56.5 2.71,-9.24 3.8,-34.23 3.8,-34.23 v -45.09 a 51.17,51.17 0 0 1 -14.91,-32.44 c -0.13,-1.78 -0.23,-3.65 -0.3,-5.59 -0.44,-12.26 7.94,-26.63 11.21,-31.75 0.79,-1.24 1.28,-1.93 1.28,-1.93 l 48,19 h 0.11 v 1.86 4.11 z"
     fill="#474463"
     id="path218" />
  <path
     d="m 581.77368,389.5287 a 30.62,30.62 0 0 0 -3.31,7.85 21.26,21.26 0 0 1 -16.53,-0.6 26.59,26.59 0 0 0 -4.61,-11.05 z"
     opacity="0.1"
     id="path220" />
  <circle
     cx="570.90363"
     cy="376.48871"
     r="21.190001"
     fill="#db8b8b"
     id="circle222" />
  <path
     d="m 598.07368,524.2587 h -0.23 c -22.78,4.68 -51.38,-19.06 -51.38,-19.06 a 28.16,28.16 0 0 0 2,-4 c 0.79,-1.24 1.28,-1.93 1.28,-1.93 l 48,19 0.12,1.9 z"
     opacity="0.1"
     id="path224" />
  <path
     d="m 592.09368,413.9687 c 0,0 -30.42,-18.47 -40.2,-10.87 l -13.58,17.38 c 0,0 -8.69,2.72 -7.06,20.1 l -6.52,31.51 19.56,4.89 c 0,0 11.41,10.87 2.17,26.62 0,0 28.79,23.9 51.61,19 l -1.68,-25.51 c 0,0 -4.89,-14.12 3.8,-27.16 8.69,-13.04 0.54,-25.53 -7.61,-30.42 0.06,0 -3.75,-20.65 -0.49,-25.54 z"
     fill="#cbcdda"
     id="path226" />
  <path
     d="m 593.72368,524.7987 c 0,0 11.41,2.17 16.84,10.87 a 33.86,33.86 0 0 0 5.69,7.1 4.31,4.31 0 0 1 -0.67,6.87 c -4.31,2.59 -11.34,4.19 -20.22,-3.11 -15.22,-12.49 -1.64,-21.73 -1.64,-21.73 z"
     fill="#db8b8b"
     id="path228" />
  <path
     d="m 576.88368,424.2987 c 0,0 -10.87,-1.09 -13.58,27.16 -2.71,28.25 -7.06,34.77 -7.06,34.77 0,0 -2.72,14.67 3.8,23.36 6.52,8.69 19,27.16 19,27.16 0,0 13.58,3.8 16.3,-9.78 l -16.84,-31.51 c 0,0 -2.72,-10.87 3.8,-18.47 6.52,-7.6 11.42,-58.13 -5.42,-52.69 z"
     opacity="0.1"
     id="path230" />
  <path
     d="m 577.97368,422.6687 c 0,0 -10.87,-1.09 -13.58,27.16 -2.71,28.25 -7.06,34.77 -7.06,34.77 0,0 -2.72,14.67 3.8,23.36 6.52,8.69 19,27.16 19,27.16 0,0 13.58,3.8 16.3,-9.78 l -16.84,-31.51 c 0,0 -2.71,-10.86 3.8,-18.43 6.51,-7.57 11.42,-58.17 -5.42,-52.73 z"
     fill="#cbcdda"
     id="path232" />
  <path
     d="m 586.93368,443.0387 c 0,0 1.09,16.84 -3.8,26.08 -4.89,9.24 -4.89,21.19 0,27.71"
     opacity="0.1"
     id="path234" />
  <path
     d="m 589.65368,422.3987 c 0,0 -4.35,-4.35 -16.84,-4.89 -12.49,-0.54 -17.93,-4.35 -17.93,-4.35"
     opacity="0.1"
     id="path236" />
  <path
     d="m 559.39368,349.1087 c -3.3,0.41 -7.07,1.54 -8.26,4.64 a 32.71,32.71 0 0 0 -0.75,3.58 c -1.23,4.75 -6.57,7 -9.87,10.58 -2.91,3.2 -4.19,7.53 -5.14,11.76 a 110.48,110.48 0 0 0 -1.91,36.91 c 1.06,9 3.23,17.88 3.83,26.93 0.6,9.05 -0.5,18.57 -5.45,26.17 -2.13,3.27 -4.93,6.14 -6.44,9.74 3.12,2.53 7.41,2.89 11.43,3 q 7,0.24 14,0 c 2.45,-0.08 5,-0.24 7.13,-1.48 a 11,11 0 0 0 3.74,-4 c 2.67,-4.54 3.35,-10 3.23,-15.25 -0.12,-5.25 -0.95,-10.49 -1,-15.76 -0.05,-2.87 0.17,-5.91 1.82,-8.26 1.19,-1.7 3,-2.84 4.55,-4.21 5.82,-5.15 7.81,-13.42 8,-21.19 0.19,-7.77 -1.09,-15.55 -0.43,-23.29 0.26,-3 1.39,-6.67 4.37,-7.26 a 16.81,16.81 0 0 0 2.84,-0.36 c 2.39,-0.92 2.16,-4.29 2.84,-6.76 0.77,-2.77 3.13,-4.91 3.8,-7.71 1.56,-6.57 -6.8,-14.42 -12.28,-16.71 -5.63,-2.35 -14.13,-1.78 -20.05,-1.07 z"
     opacity="0.1"
     id="path238" />
  <path
     d="m 558.89368,348.0187 c -3.3,0.41 -7.07,1.54 -8.26,4.64 a 32.71,32.71 0 0 0 -0.75,3.58 c -1.23,4.75 -6.57,7 -9.87,10.58 -2.91,3.2 -4.19,7.53 -5.14,11.76 a 110.48,110.48 0 0 0 -1.91,36.91 c 1.06,9 3.23,17.88 3.83,26.93 0.6,9.05 -0.5,18.57 -5.45,26.17 -2.13,3.27 -4.93,6.14 -6.44,9.74 3.12,2.53 7.41,2.89 11.43,3 q 7,0.24 14,0 c 2.45,-0.08 5,-0.24 7.13,-1.48 a 11,11 0 0 0 3.74,-4 c 2.67,-4.54 3.35,-10 3.23,-15.25 -0.12,-5.25 -0.95,-10.49 -1,-15.76 -0.05,-2.87 0.17,-5.91 1.82,-8.26 1.19,-1.7 3,-2.84 4.55,-4.21 5.82,-5.15 7.81,-13.42 8,-21.19 0.19,-7.77 -1.09,-15.55 -0.43,-23.29 0.26,-3 1.39,-6.67 4.37,-7.26 a 16.81,16.81 0 0 0 2.84,-0.36 c 2.39,-0.92 2.16,-4.29 2.84,-6.76 0.77,-2.77 3.13,-4.91 3.8,-7.71 1.56,-6.57 -6.8,-14.42 -12.28,-16.71 -5.67,-2.35 -14.17,-1.79 -20.05,-1.07 z"
     fill="#472727"
     id="path240" />
</svg>
